<?xml version="1.0" encoding="UTF-8"?>
<svg version="1.1" xmlns="http://www.w3.org/2000/svg" width="256" height="317">
<path d="M0 0 C-4.52297058 5.42102347 -9.31410257 10.45350333 -14.31430054 15.43455505 C-15.13613756 16.2572465 -15.95797458 17.07993795 -16.80471575 17.92755944 C-19.06967234 20.1938716 -21.33684195 22.45794169 -23.60499167 24.7210573 C-26.05662635 27.16835372 -28.50535 29.61855993 -30.95443726 32.06840515 C-35.19251356 36.30700456 -39.43240978 40.54377633 -43.67356491 44.77929497 C-49.80548112 50.90306718 -55.93461806 57.02961493 -62.06309088 63.15683294 C-72.00738934 73.09894544 -81.95391664 83.03882501 -91.90185547 92.97729492 C-101.56253555 102.62878911 -111.22215967 112.28133815 -120.88037109 121.93530273 C-121.47619387 122.53086279 -122.07201664 123.12642284 -122.68589465 123.74003016 C-125.67510232 126.72793274 -128.66428929 129.71585602 -131.65346599 132.70378959 C-156.43243741 157.47240258 -181.21503018 182.23738943 -206 207 C-209.54700061 205.32694088 -211.88807262 203.38154437 -214.69262695 200.61376953 C-215.61650711 199.70587677 -216.54038727 198.79798401 -217.49226379 197.86257935 C-218.49141351 196.86980379 -219.49007458 195.87653626 -220.48828125 194.8828125 C-221.51621596 193.86384611 -222.54422712 192.84495684 -223.5723114 191.82614136 C-225.72193717 189.69298013 -227.86715258 187.55548653 -230.01000977 185.41552734 C-232.76021097 182.67072848 -235.52623026 179.94247635 -238.29641438 177.2178669 C-240.42288906 175.12107825 -242.53807743 173.01318128 -244.65025902 170.90200424 C-245.66570331 169.89077376 -246.68528095 168.88367663 -247.70897865 167.88080215 C-249.13581727 166.48071566 -250.54554203 165.06325184 -251.9543457 163.64501953 C-253.16535698 162.44161423 -253.16535698 162.44161423 -254.40083313 161.21389771 C-256 159 -256 159 -255.7414735 157.04368663 C-254.51913923 153.67462729 -252.03080982 151.26126227 -249.66825867 148.63458252 C-249.10501021 147.9982142 -248.54176175 147.36184589 -247.96144515 146.70619369 C-246.06409421 144.56915187 -244.15514285 142.4428806 -242.24487305 140.31738281 C-241.24454418 139.19767436 -241.24454418 139.19767436 -240.22400665 138.05534554 C-226.89825182 123.1431779 -213.24028088 108.54510061 -199.47061443 94.04300308 C-190.73000695 84.82527813 -182.10475528 75.54006063 -173.7121582 66.00341797 C-120.57541966 5.77233321 -80.45236176 -12.93473693 0 0 Z " fill="#47C4FB" transform="translate(256,0)"/>
<path d="M0 0 C-4.38381114 5.24471606 -8.99708809 10.13522023 -13.84130859 14.95483398 C-14.60296326 15.71663467 -15.36461792 16.47843536 -16.14935303 17.26332092 C-18.64668272 19.75995857 -21.14752687 22.25304362 -23.6484375 24.74609375 C-25.38885998 26.48464954 -27.12906061 28.22342744 -28.86904907 29.9624176 C-33.43376321 34.52332637 -38.00147327 39.08122314 -42.56982422 43.63848877 C-47.23717278 48.29558054 -51.90166724 52.95552903 -56.56640625 57.61523438 C-65.70815409 66.74627983 -74.85297437 75.87424173 -84 85 C-82.62217197 88.09555382 -81.04327394 90.20299953 -78.64645386 92.58732605 C-77.9537439 93.28134018 -77.26103394 93.97535431 -76.54733276 94.69039917 C-75.78776276 95.44120758 -75.02819275 96.19201599 -74.24560547 96.96557617 C-73.04547821 98.16373207 -73.04547821 98.16373207 -71.82110596 99.38609314 C-69.17436339 102.026342 -66.52072469 104.65955034 -63.8671875 107.29296875 C-62.0310793 109.12280846 -60.19548404 110.95316299 -58.36038208 112.78401184 C-54.02194486 117.11049959 -49.67943939 121.43286074 -45.33458912 125.7529071 C-37.08399608 133.95648913 -28.84054271 142.16722473 -20.60104752 150.38195229 C-17.88668358 153.08604643 -15.16895805 155.78672883 -12.45089722 158.48710632 C-10.79902019 160.13215979 -9.14725031 161.77732084 -7.49560547 163.42260742 C-6.731987 164.17948853 -5.96836853 164.93636963 -5.18161011 165.71618652 C-4.49453979 166.40174118 -3.80746948 167.08729584 -3.09957886 167.79362488 C-2.4974803 168.39220401 -1.89538174 168.99078314 -1.27503777 169.60750103 C0 171 0 171 0 172 C-14.6357433 174.66368758 -29.28074987 176.39068083 -44.125 177.375 C-45.77834539 177.48542633 -45.77834539 177.48542633 -47.46509171 177.5980835 C-76.46252006 179.30551383 -99.56274595 175.19034811 -121.6283493 155.66225052 C-130.97076604 147.23737509 -139.69387472 138.27298728 -148.1875 129 C-148.65924054 128.48626044 -149.13098108 127.97252089 -149.61701679 127.44321346 C-161.90575165 114.04127791 -173.69121326 100.24094234 -185 86 C-184.1408902 85.01096176 -183.2817804 84.02192352 -182.39663696 83.00291443 C-179.62686033 79.77192369 -176.97544077 76.46536048 -174.35156345 73.1155405 C-165.13375128 61.37621936 -155.42068678 50.09948764 -145.375 39.0625 C-144.53063763 38.13392559 -143.68627525 37.20535118 -142.81632614 36.24863815 C-100.99674684 -9.2327023 -58.2359977 -9.48249412 0 0 Z " fill="#46C4FA" transform="translate(256,145)"/>
<path d="M0 0 C3.11152037 1.38369069 5.2305807 2.98119221 7.63201904 5.38478088 C8.33589249 6.08445984 9.03976593 6.78413879 9.76496887 7.50502014 C10.90756416 8.65604469 10.90756416 8.65604469 12.07324219 9.83032227 C12.88337265 10.63855438 13.69350311 11.4467865 14.52818298 12.2795105 C17.20599207 14.95361319 19.87653059 17.63485094 22.546875 20.31640625 C24.40167405 22.17239703 26.2568425 24.02801873 28.11236572 25.88328552 C31.99939066 29.77124625 35.88252642 33.66305705 39.76318359 37.55737305 C44.25535607 42.06529775 48.75276086 46.56794742 53.25318217 51.06763607 C57.57944392 55.39328854 61.90279164 59.72183881 66.22464752 64.05189323 C68.06615005 65.89658904 69.90826868 67.74067 71.75099945 69.58413887 C74.31797807 72.15327241 76.88164423 74.72566351 79.44433594 77.29907227 C80.21416306 78.0684462 80.98399017 78.83782013 81.77714539 79.63050842 C82.46973953 80.32736755 83.16233368 81.02422668 83.87591553 81.74220276 C84.48279079 82.35075387 85.08966606 82.95930498 85.71493149 83.58629704 C87 85 87 85 87 86 C71.26082851 87.08435785 55.52113783 87.82848171 39.75 88.25 C38.60496883 88.28081665 37.45993767 88.3116333 36.28020859 88.34338379 C-13.31286305 89.52530858 -13.31286305 89.52530858 -29.33944702 75.59429932 C-36.92649732 68.089853 -43.05388085 59.42834372 -48 50 C-46.47102424 46.38307227 -44.32184367 44.0796478 -41.55029297 41.32324219 C-40.16908768 39.94226349 -40.16908768 39.94226349 -38.75997925 38.53338623 C-37.75415535 37.5377747 -36.7482222 36.54227352 -35.7421875 35.546875 C-34.71327851 34.52169807 -33.68481163 33.49607725 -32.6567688 32.47003174 C-29.95518419 29.77606836 -27.24764659 27.08816632 -24.53881836 24.40148926 C-21.77355511 21.65671696 -19.01397367 18.90624528 -16.25390625 16.15625 C-10.84147726 10.76524427 -5.42274562 5.38063036 0 0 Z " fill="#00559C" transform="translate(169,231)"/>
<path d="M0 0 C3.26233121 1.42882214 5.40993909 3.17053252 7.90722656 5.69604492 C8.66191223 6.45410934 9.4165979 7.21217377 10.19415283 7.99320984 C11.00148865 8.81400528 11.80882446 9.63480072 12.640625 10.48046875 C13.48163757 11.32668289 14.32265015 12.17289703 15.18914795 13.04475403 C17.88088337 15.75430529 20.56586526 18.47042077 23.25 21.1875 C25.92066362 23.88589762 28.59280522 26.58278724 31.26800537 29.27668762 C32.93152597 30.95233414 34.5923676 32.63064603 36.25006104 34.3120575 C40.99261423 39.09497748 45.86098845 43.64500136 51 48 C45.99744121 54.04265914 40.56822676 59.56098043 35.0078125 65.08984375 C34.05209752 66.04368954 33.09660612 66.99775941 32.1413269 67.95204163 C29.64805084 70.44153194 27.15178475 72.92800224 24.65484619 75.41381836 C22.09878491 77.95957994 19.54561495 80.50823777 16.9921875 83.05664062 C11.99758981 88.04057069 6.99982201 93.02131048 2 98 C-4.04265914 92.99744121 -9.56098043 87.56822676 -15.08984375 82.0078125 C-16.04368954 81.05209752 -16.99775941 80.09660612 -17.95204163 79.1413269 C-20.44153194 76.64805084 -22.92800224 74.15178475 -25.41381836 71.65484619 C-27.95957994 69.09878491 -30.50823777 66.54561495 -33.05664062 63.9921875 C-38.04057069 58.99758981 -43.02131048 53.99982201 -48 49 C-43.06002739 43.03881703 -37.71470138 37.58513698 -32.2265625 32.12890625 C-31.3028183 31.206577 -30.3790741 30.28424774 -29.42733765 29.33396912 C-26.99324569 26.90366186 -24.55616403 24.47637504 -22.1184082 22.04974365 C-19.6226689 19.56430636 -17.12982292 17.07597068 -14.63671875 14.58789062 C-9.7606114 9.72244904 -4.88133369 4.86019802 0 0 Z " fill="#00B5F7" transform="translate(119,182)"/>
<path d="M0 0 C0.66 0.33 1.32 0.66 2 1 C-12.52 15.52 -27.04 30.04 -42 45 C-41.34 45.66 -40.68 46.32 -40 47 C-43.465 47.495 -43.465 47.495 -47 48 C-42.12275563 42.1202495 -36.86113122 36.73119183 -31.4453125 31.34765625 C-30.54376434 30.44752304 -29.64221619 29.54738983 -28.71334839 28.61997986 C-26.33801783 26.24927177 -23.96054595 23.88075485 -21.58197021 21.51330566 C-19.14655283 19.08819272 -16.71403088 16.66017915 -14.28125 14.23242188 C-9.52347231 9.48562872 -4.7628462 4.74170719 0 0 Z " fill="#014E86" transform="translate(169,231)"/>
</svg>
