<?xml version="1.0" encoding="UTF-8"?>
<svg version="1.1" xmlns="http://www.w3.org/2000/svg" width="2048" height="2048">
<path d="M0 0 C2.6593986 1.42778757 5.32881494 2.83570518 7.99902344 4.24316406 C22.81135121 12.10056852 37.12864007 20.6407257 51.39355469 29.43701172 C53.98373693 31.02715053 56.58296669 32.59835816 59.19433594 34.15332031 C85.75600331 50.0104822 111.06489748 67.92741001 135.52978516 86.82861328 C137.36282558 88.24214734 139.20108168 89.64849578 141.04199219 91.05175781 C150.80638499 98.50237397 160.27486411 106.2751746 169.62646484 114.23413086 C173.15964321 117.23601609 176.7396836 120.17059393 180.35058594 123.07910156 C184.06366901 126.09900415 187.49302312 129.22889516 190.81933594 132.66503906 C193.16877535 135.02556073 195.68732253 137.16792554 198.20605469 139.34472656 C202.45052429 143.05589792 206.58735976 146.88522086 210.72607422 150.71337891 C211.93853686 151.83312183 213.15320942 152.95047478 214.36962891 154.06591797 C222.28139915 161.32505021 229.97575755 168.6671087 237.1394043 176.67407227 C239.51756596 179.31546406 241.89393998 181.75536797 244.64746094 184.00878906 C246.91885047 185.87233241 248.73696199 187.58867933 250.60058594 189.82910156 C253.74593293 193.51603148 256.99291498 197.08927947 260.28808594 200.64160156 C261.33243134 201.77043883 262.37670215 202.89934511 263.42089844 204.02832031 C265.33208641 206.09367505 267.24361806 208.1587106 269.15527344 210.22363281 C273.97971281 215.47641026 278.59121485 220.8412543 283.06933594 226.39160156 C285.77339095 229.69265574 288.55721353 232.9162873 291.35058594 236.14160156 C302.72950826 249.34617289 313.07994869 263.34668229 323.47558594 277.32910156 C323.99185547 278.02213379 324.508125 278.71516602 325.04003906 279.42919922 C332.08877281 288.90419629 338.86121668 298.54646881 345.47558594 308.32910156 C346.00522949 309.10995117 346.53487305 309.89080078 347.08056641 310.6953125 C366.7640901 339.76371042 384.56978243 369.8249319 401.11083984 400.78320312 C402.28800425 402.9791728 403.47687916 405.16785538 404.67480469 407.35253906 C426.49927529 447.30443879 443.59033263 490.37251335 458.47558594 533.32910156 C458.8898584 534.51213867 459.30413086 535.69517578 459.73095703 536.9140625 C468.06002263 560.74853093 474.99605034 584.93208705 481.47558594 609.32910156 C481.65820984 610.01514465 481.84083374 610.70118774 482.0289917 611.40802002 C496.71681301 666.78743414 504.46289766 723.81891275 509.16308594 780.82910156 C509.25449356 781.92912003 509.25449356 781.92912003 509.3477478 783.05136108 C510.90271953 801.97878828 511.63574403 820.88250254 511.64355469 839.87207031 C511.64678757 841.77842735 511.65015294 843.68478416 511.65364075 845.59114075 C511.65956762 849.56003389 511.66148758 853.52890549 511.66088867 857.49780273 C511.66080783 861.48710709 511.66769438 865.47629557 511.68139648 869.46557617 C511.76484459 894.16898565 511.33229525 918.69179262 509.47558594 943.32910156 C509.39988373 944.37959686 509.32418152 945.43009216 509.2461853 946.51242065 C508.7959292 952.7484064 508.28665725 958.97714655 507.72558594 965.20410156 C507.60153381 966.58997467 507.60153381 966.58997467 507.47497559 968.00384521 C499.5701088 1055.20590265 479.82734261 1141.59552026 426.92431641 1275.05273438 C425.61060164 1278.02375767 424.30903829 1280.99975642 423.01074219 1283.97753906 C418.82031915 1293.52229098 414.25862052 1302.78743557 409.32714844 1311.96972656 C407.16824956 1315.99740782 405.0733203 1320.05408331 402.99902344 1324.12597656 C394.99077101 1339.84089272 386.60547817 1355.2277141 377.47558594 1370.32910156 C376.81349121 1371.42448242 376.15139648 1372.51986328 375.46923828 1373.6484375 C368.17514121 1385.68893422 360.81509554 1397.68137521 352.86132812 1409.29980469 C351.20513224 1411.72515709 349.56332528 1414.16002964 347.92089844 1416.59472656 C341.10891303 1426.66977771 334.19298475 1436.63491096 326.91943359 1446.38183594 C325.31384606 1448.54723434 323.72783179 1450.72619153 322.14355469 1452.90722656 C315.00437091 1462.71417926 307.63620707 1472.26301947 299.89941406 1481.60546875 C297.88718121 1484.04140221 295.90250844 1486.49952632 293.91308594 1488.95410156 C289.55699058 1494.2720355 285.0884588 1499.48964418 280.60058594 1504.69628906 C278.48521075 1507.15049633 276.38206491 1509.61442787 274.28808594 1512.08691406 C269.70218454 1517.49284405 265.15323468 1522.83226295 260.04980469 1527.76269531 C256.38634613 1531.40797294 253.08518906 1535.41517712 249.76074219 1539.36816406 C246.92125069 1542.70343979 244.0805008 1545.7571467 240.72558594 1548.57910156 C237.37044577 1551.42298227 234.46578143 1554.48457076 231.53808594 1557.76660156 C224.98561901 1565.08334767 217.79935832 1571.70209543 210.59472656 1578.3671875 C208.57547022 1580.23662805 206.56332459 1582.11336777 204.55371094 1583.99316406 C198.61523123 1589.54222242 192.65211815 1595.04448736 186.47558594 1600.32910156 C185.44163915 1601.21701456 184.40779461 1602.10504662 183.37402344 1602.99316406 C180.97719124 1605.05127291 178.57676651 1607.10510812 176.17480469 1609.15722656 C173.79072519 1611.19626655 171.4186613 1613.24781878 169.05761719 1615.31347656 C161.5623618 1621.84938252 153.83380339 1627.9824287 145.89746094 1633.97363281 C142.14150369 1636.81059697 138.43449023 1639.70525316 134.73535156 1642.61572266 C126.15138249 1649.36159464 117.37261419 1655.74648441 108.40722656 1661.97363281 C106.64864589 1663.20766212 104.90968446 1664.46301205 103.17871094 1665.73535156 C91.65310864 1674.1687191 79.55519107 1681.72069112 67.47558594 1689.32910156 C66.55261719 1689.91127441 65.62964844 1690.49344727 64.67871094 1691.09326172 C43.50993649 1704.41377567 21.90207525 1716.88338064 -0.20800781 1728.57470703 C-2.41852901 1729.74408316 -4.62687086 1730.91758832 -6.83300781 1732.09521484 C-85.18537139 1773.89006367 -172.21803607 1803.05203737 -383.99142456 1838.13412476 C-385.80493645 1838.27371979 -387.61781297 1838.4216679 -389.4302063 1838.57510376 C-411.53388627 1840.43816899 -433.5609628 1840.67271022 -455.73217773 1840.64477539 C-459.69551013 1840.64016921 -463.65853372 1840.64699121 -467.62182617 1840.6652832 C-547.5227999 1841.03023608 -626.92112287 1830.27242893 -704.52441406 1811.32910156 C-705.19226929 1811.16708252 -705.86012451 1811.00506348 -706.54821777 1810.83813477 C-762.49841462 1797.25364019 -816.85947023 1778.58235277 -869.52441406 1755.32910156 C-870.18671021 1755.03672607 -870.84900635 1754.74435059 -871.53137207 1754.44311523 C-888.86519364 1746.77814464 -905.99541754 1738.87886718 -922.67724609 1729.86230469 C-925.71987736 1728.22384436 -928.77538695 1726.61127712 -931.83300781 1725.00097656 C-946.04550088 1717.48158851 -959.9185061 1709.50518219 -973.62695312 1701.10351562 C-976.31365516 1699.45817097 -979.00774736 1697.82574801 -981.70410156 1696.19628906 C-1003.31772076 1683.06028969 -1024.49205303 1669.03276843 -1044.64941406 1653.75 C-1046.34100408 1652.46809194 -1048.03956001 1651.19653652 -1049.74316406 1649.93066406 C-1052.68054528 1647.74342052 -1055.60481488 1645.54002433 -1058.52441406 1643.32910156 C-1059.5025708 1642.58877686 -1059.5025708 1642.58877686 -1060.50048828 1641.83349609 C-1073.25256167 1632.17001958 -1085.64456573 1622.14846056 -1097.82421875 1611.77490234 C-1099.53618501 1610.31909186 -1101.25274245 1608.86883224 -1102.96972656 1607.41894531 C-1109.6951269 1601.71974099 -1116.24929292 1595.87609013 -1122.68066406 1589.84667969 C-1125.72770385 1586.99051369 -1128.79670443 1584.18020696 -1131.96191406 1581.45410156 C-1135.04363724 1578.79766927 -1137.89720238 1575.97676153 -1140.74707031 1573.07519531 C-1142.5903498 1571.26432514 -1144.50264205 1569.57588803 -1146.46191406 1567.89160156 C-1152.07799536 1563.03445017 -1157.26692868 1557.85252194 -1162.08691406 1552.20410156 C-1164.25922925 1549.67219679 -1166.45043094 1547.45020124 -1169.02441406 1545.32910156 C-1172.18816267 1542.71010437 -1174.7922249 1539.84749467 -1177.45019531 1536.72363281 C-1180.03555948 1533.7390222 -1182.71333856 1530.84792821 -1185.39941406 1527.95410156 C-1192.82814664 1519.92742975 -1200.13785776 1511.87671475 -1207.01660156 1503.36816406 C-1209.91274487 1499.85850753 -1212.90155478 1496.43922326 -1215.89941406 1493.01660156 C-1236.78268447 1469.06385826 -1255.26736595 1442.80958869 -1273.05029297 1416.50878906 C-1274.37484649 1414.55025746 -1275.70502441 1412.59567941 -1277.03613281 1410.64160156 C-1295.05576074 1384.04931347 -1311.03029994 1356.19115097 -1326.15966797 1327.875 C-1327.33683238 1325.67903033 -1328.52570729 1323.49034774 -1329.72363281 1321.30566406 C-1346.83463794 1289.98223938 -1360.70947902 1256.6084745 -1373.52441406 1223.32910156 C-1374.19585449 1221.59321777 -1374.19585449 1221.59321777 -1374.88085938 1219.82226562 C-1394.13353609 1169.70351785 -1408.32953397 1118.00141385 -1418.52441406 1065.32910156 C-1418.688125 1064.48671936 -1418.85183594 1063.64433716 -1419.02050781 1062.77642822 C-1425.26547841 1030.55784431 -1429.76755369 998.26400859 -1432.71191406 965.57910156 C-1432.79081879 964.71178406 -1432.86972351 963.84446655 -1432.95101929 962.9508667 C-1433.53793615 956.41462336 -1434.04562436 949.8740863 -1434.52441406 943.32910156 C-1434.61301697 942.1524292 -1434.70161987 940.97575684 -1434.79290771 939.76342773 C-1436.49627496 916.56494039 -1436.8399498 893.43534248 -1436.78515625 870.1796875 C-1436.77376273 865.30631162 -1436.7805502 860.4331543 -1436.79203415 855.55978584 C-1436.83898094 832.07295448 -1436.27643071 808.7519436 -1434.52441406 785.32910156 C-1434.44880249 784.27742798 -1434.37319092 783.22575439 -1434.29528809 782.14221191 C-1433.84499361 775.90742477 -1433.33531935 769.67987233 -1432.77441406 763.45410156 C-1432.69171265 762.52985382 -1432.60901123 761.60560608 -1432.52380371 760.65335083 C-1425.02099038 677.85244971 -1406.82998976 595.99344132 -1350.52441406 450.32910156 C-1350.08967773 449.34103516 -1349.65494141 448.35296875 -1349.20703125 447.33496094 C-1339.99972555 426.44740411 -1329.3961654 406.38752791 -1318.52441406 386.32910156 C-1317.8000415 384.99250488 -1317.8000415 384.99250488 -1317.06103516 383.62890625 C-1305.04721142 361.54143516 -1291.90599471 339.97728211 -1277.77832031 319.17675781 C-1276.81787497 317.76152215 -1275.86002493 316.34452489 -1274.90332031 314.92675781 C-1267.45583314 303.89166392 -1259.93072299 292.94646642 -1251.96826172 282.27636719 C-1250.36267418 280.11096878 -1248.77665991 277.93201159 -1247.19238281 275.75097656 C-1240.05446106 265.94575748 -1232.68781768 256.3981443 -1224.95263672 247.05712891 C-1222.91979137 244.59755978 -1220.91143783 242.11821341 -1218.89941406 239.64160156 C-1211.63762264 230.78381203 -1204.25667139 222.04804811 -1196.55175781 213.57128906 C-1194.78474207 211.61701732 -1193.05527877 209.63850419 -1191.33691406 207.64160156 C-1187.78076564 203.55830643 -1184.09185532 199.60123071 -1180.39941406 195.64160156 C-1179.80104736 194.99940674 -1179.20268066 194.35721191 -1178.58618164 193.69555664 C-1174.58563207 189.41929878 -1170.48741879 185.26089243 -1166.31347656 181.15332031 C-1162.7373764 177.62240554 -1159.24021456 174.07753212 -1155.96191406 170.26660156 C-1150.57966845 164.01625182 -1144.70719082 158.41605 -1138.45800781 153.04394531 C-1136.56946809 151.36905857 -1134.79285759 149.62962569 -1133.02441406 147.82910156 C-1130.07841192 144.83675781 -1126.99458399 142.07585984 -1123.81347656 139.33691406 C-1121.58907158 137.38581481 -1119.41343808 135.38801248 -1117.24462891 133.37548828 C-1112.1352797 128.6372546 -1106.91473083 124.12718171 -1101.48144531 119.75878906 C-1098.69437184 117.46874983 -1095.98222173 115.11549985 -1093.27636719 112.73120117 C-1085.36666274 105.76905627 -1077.14311296 99.34327067 -1068.72900391 93.00585938 C-1065.72178818 90.71864369 -1062.75537449 88.3811539 -1059.78637695 86.04467773 C-1051.20246785 79.29706737 -1042.42225758 72.91228498 -1033.45605469 66.68457031 C-1031.69747402 65.45054101 -1029.95851258 64.19519107 -1028.22753906 62.92285156 C-1016.70193676 54.48948403 -1004.6040192 46.937512 -992.52441406 39.32910156 C-991.60144531 38.74692871 -990.67847656 38.16475586 -989.72753906 37.56494141 C-968.51806927 24.21881979 -946.86555298 11.7405978 -924.71533203 0.02294922 C-921.66563338 -1.59593442 -918.62759635 -3.23496765 -915.59082031 -4.87792969 C-897.68290669 -14.47932987 -879.17974414 -22.6480541 -860.52441406 -30.67089844 C-859.87003357 -30.95276001 -859.21565308 -31.23462158 -858.54144287 -31.52502441 C-776.45430434 -66.83103619 -690.04918078 -89.89955781 -519.52441406 -108.67089844 C-518.37199219 -108.73019531 -517.21957031 -108.78949219 -516.03222656 -108.85058594 C-423.5647217 -113.37696729 -329.89857576 -107.04479366 0 0 Z " fill="#EDEDEE" transform="translate(1486.5244140625,191.6708984375)"/>
<path d="M0 0 C1.8818399 0.00090637 1.8818399 0.00090637 3.80169678 0.00183105 C24.43581924 0.02870822 44.93589487 0.47819306 65.5 2.1875 C66.22382874 2.24595093 66.94765747 2.30440186 67.69342041 2.36462402 C89.24583038 4.11283262 110.61691883 6.93313652 132 10.125 C133.65538284 10.36962982 133.65538284 10.36962982 135.34420776 10.61920166 C149.74347523 12.76208974 163.94487874 15.40656552 178.13702393 18.64950562 C181.14265049 19.33381648 184.15503423 19.98543845 187.16796875 20.63671875 C217.52749036 27.3755354 247.17723598 36.32392859 276.54223633 46.50909424 C278.37153257 47.14298337 280.20231392 47.77258219 282.03320312 48.40185547 C308.19251401 57.42298228 333.49726393 68.363546 358.5 80.1875 C359.55703125 80.6825 360.6140625 81.1775 361.703125 81.6875 C376.60907922 88.66784929 391.15345229 96.12155206 405.5 104.1875 C406.34949219 104.66123047 407.19898438 105.13496094 408.07421875 105.62304688 C430.92683727 118.37921755 453.04507687 132.20297463 474.5 147.1875 C476.01551224 148.23714199 477.53113229 149.28662835 479.046875 150.3359375 C489.09367211 157.32555669 498.84295792 164.67073067 508.5 172.1875 C509.13599121 172.68169434 509.77198242 173.17588867 510.42724609 173.68505859 C525.72747916 185.58968904 540.68901299 197.89967365 555.0234375 210.95703125 C557.1173137 212.84284088 559.23051756 214.70028909 561.35546875 216.55078125 C572.86623142 226.60998912 583.74525137 237.33166104 594.5625 248.125 C595.10292938 248.66284119 595.64335876 249.20068237 596.20016479 249.75482178 C601.62613226 255.16027421 606.98350865 260.58019747 611.96362305 266.40600586 C614.50830973 269.35667783 617.20173343 272.16630469 619.875 275 C624.60196376 280.04660944 629.07509143 285.22084148 633.3984375 290.62109375 C635.48001427 293.16309363 637.6503838 295.58279335 639.875 298 C644.94764458 303.57549804 649.55314061 309.47727925 654.15332031 315.44238281 C655.40705901 317.06706088 656.66808696 318.68610675 657.9296875 320.3046875 C674.36010059 341.4756788 690.29892169 363.18969968 704.22216797 386.10302734 C705.63031133 388.40007129 707.06515186 390.67904124 708.50390625 392.95703125 C720.25120831 411.61535268 731.03892748 430.85101144 741.10400391 450.46728516 C742.10727961 452.42225157 743.11533882 454.37476587 744.12646484 456.32568359 C771.51595965 509.30403236 792.53416279 565.47367206 807.5 623.1875 C807.79326172 624.30737305 808.08652344 625.42724609 808.38867188 626.58105469 C820.16470841 671.96731577 827.30056591 718.52640402 831.5 765.1875 C831.62004395 766.49928223 831.74008789 767.81106445 831.86376953 769.16259766 C833.54492745 788.47211196 833.67809102 807.75300486 833.6875 827.125 C833.68858765 828.32226715 833.68967529 829.5195343 833.6907959 830.75308228 C833.68824912 855.50165633 832.83208874 880.14495195 830.8125 904.8125 C830.7279657 905.85455597 830.6434314 906.89661194 830.55633545 907.97024536 C828.89627104 928.10124224 826.24918252 947.97633506 822.88604736 967.88793945 C822.50299299 970.16967171 822.12872297 972.45267198 821.75732422 974.73632812 C818.54454067 994.44752987 814.55122062 1013.85390309 809.5 1033.1875 C809.22319397 1034.25191315 809.22319397 1034.25191315 808.9407959 1035.33782959 C793.75890977 1093.67401223 773.99048436 1150.39469563 746.53515625 1204.171875 C745.00721153 1207.16558506 743.52571186 1210.17914635 742.05859375 1213.203125 C735.65826395 1226.32735682 728.58407019 1238.93785355 721.10888672 1251.47802734 C719.68315816 1253.87904944 718.27528237 1256.2888633 716.87890625 1258.70703125 C695.58576494 1295.53479137 670.74768635 1330.95442176 643.015625 1363.23828125 C640.60827404 1366.06056382 638.26661524 1368.92553723 635.9375 1371.8125 C632.06070231 1376.57700808 627.98528468 1381.1239389 623.828125 1385.64453125 C621.89305738 1387.75817054 619.99791703 1389.89409848 618.125 1392.0625 C608.2330983 1403.4019601 597.73197925 1414.11511074 587.08056641 1424.73730469 C584.73613323 1427.07633481 582.39715129 1429.42072197 580.05859375 1431.765625 C578.54459166 1433.27896687 577.0302797 1434.79199881 575.515625 1436.3046875 C574.82897766 1436.99335907 574.14233032 1437.68203064 573.43487549 1438.39157104 C569.50248941 1442.3052155 565.46923627 1446.04417571 561.26307678 1449.66253662 C558.67706451 1451.89929344 556.18941918 1454.23204102 553.6875 1456.5625 C549.03961458 1460.8562538 544.25583652 1464.9228184 539.32421875 1468.890625 C536.83759861 1470.91293847 534.39692001 1472.97940937 531.9675293 1475.06982422 C524.43632177 1481.5376802 516.59618835 1487.55303121 508.67626953 1493.53466797 C506.55365696 1495.14674864 504.44467286 1496.7749463 502.33984375 1498.41015625 C475.7839926 1519.00934981 447.50832785 1537.25131515 418.5 1554.1875 C417.57751465 1554.72793945 416.6550293 1555.26837891 415.70458984 1555.82519531 C372.61377919 1580.95828329 327.25457072 1601.32471081 280.4375 1618.4375 C279.46361328 1618.79634277 278.48972656 1619.15518555 277.48632812 1619.52490234 C263.26947931 1624.60699999 247.5114337 1627.09417663 233.07421875 1621.44140625 C223.70858495 1616.87939039 215.69969343 1609.22299666 212.0625 1599.375 C211.50931512 1597.65590977 210.98489281 1595.92708722 210.5 1594.1875 C210.23465716 1593.2583967 210.23465716 1593.2583967 209.96395385 1592.31052363 C209.47015163 1590.05091575 209.37929524 1588.05033883 209.38533211 1585.73865318 C209.38519116 1584.8480071 209.3850502 1583.95736102 209.38490498 1583.03972566 C209.38986418 1582.06524748 209.39482338 1581.0907693 209.39993286 1580.08676147 C209.40119513 1579.04813198 209.40245741 1578.00950248 209.40375793 1576.93939936 C209.40914987 1573.44704055 209.4216772 1569.95474276 209.43408203 1566.46240234 C209.43927417 1563.96215914 209.44398252 1561.46191489 209.44824219 1558.96166992 C209.45819766 1553.56734608 209.47100367 1548.17303992 209.48596573 1542.77872849 C209.5093864 1534.22721921 209.52235608 1525.67570867 209.53366089 1517.12417603 C209.53766285 1514.19341843 209.5417316 1511.26266093 209.54582024 1508.33190346 C209.54683946 1507.5993086 209.54785869 1506.86671374 209.54890881 1506.11191904 C209.56065531 1497.76943393 209.57452765 1489.42695282 209.58935547 1481.08447266 C209.5907079 1480.32197612 209.59206033 1479.55947959 209.59345375 1478.7738771 C209.61553829 1466.47294646 209.64540228 1454.17204387 209.67732288 1441.8711354 C209.70989837 1429.20797181 209.73064158 1416.54482264 209.74159515 1403.88162196 C209.74876068 1396.09344857 209.76526371 1388.30541317 209.79439591 1380.51729043 C209.81593292 1374.51374427 209.8212427 1368.51028767 209.82102966 1362.50669861 C209.82342106 1360.06974326 209.83085607 1357.63278585 209.84415817 1355.19586563 C210.11889972 1302.59780009 198.82987801 1244.9535279 160.5 1206.1875 C159.39267439 1205.24812516 158.27316342 1204.32288143 157.140625 1203.4140625 C156.26921875 1202.67929688 155.3978125 1201.94453125 154.5 1201.1875 C154.5 1200.5275 154.5 1199.8675 154.5 1199.1875 C155.7840271 1199.06072876 155.7840271 1199.06072876 157.09399414 1198.93139648 C188.73700134 1195.73549252 220.08973656 1190.86532404 250.90234375 1182.86083984 C253.33719725 1182.22970019 255.77650348 1181.62131154 258.21875 1181.01953125 C319.43072386 1165.72146629 385.03175243 1138.59266915 429.046875 1091.515625 C430.5 1090.1875 430.5 1090.1875 432.5 1090.1875 C432.72558594 1089.63191406 432.95117188 1089.07632812 433.18359375 1088.50390625 C434.88894414 1085.50309681 437.06706316 1083.50812463 439.5625 1081.125 C444.99242047 1075.81094849 449.87498786 1070.22138829 454.5 1064.1875 C455.27947998 1063.17405518 455.27947998 1063.17405518 456.07470703 1062.14013672 C470.02938595 1043.8831303 481.19200908 1024.70223221 491.5 1004.1875 C491.85046387 1003.49591797 492.20092773 1002.80433594 492.56201172 1002.09179688 C505.57737058 976.21075919 514.50089914 947.46607282 520.5 919.1875 C520.70189941 918.2608252 520.90379883 917.33415039 521.11181641 916.37939453 C524.15424324 902.2628186 526.32249683 888.06158214 528.1875 873.75 C528.2901416 872.97666321 528.3927832 872.20332642 528.49853516 871.40655518 C531.73041352 846.82744146 532.85798135 822.29299528 532.81567383 797.52612305 C532.81102938 794.59009535 532.81803976 791.65448073 532.83618164 788.71850586 C532.98080643 765.04295697 531.82147388 741.7802868 526.75 718.5625 C526.49395996 717.36431641 526.23791992 716.16613281 525.97412109 714.93164062 C517.1612005 674.79274489 501.21993751 635.87261836 477.5 602.1875 C476.72500813 601.06267378 475.95028207 599.93766439 475.17578125 598.8125 C467.77059264 588.15496314 459.48870524 578.35694259 450.7421875 568.7734375 C449.5 567.1875 449.5 567.1875 448.5 564.1875 C449.31540461 561.40326388 450.20282514 558.72357481 451.1875 556 C460.95881216 527.84628304 464.72467856 498.69721004 464.75 469 C464.75100708 468.17178741 464.75201416 467.34357483 464.75305176 466.49026489 C464.74085969 451.55122158 463.79896404 436.96973971 461.5 422.1875 C461.29117187 420.83229248 461.29117187 420.83229248 461.078125 419.44970703 C457.29885438 395.85988478 450.50752306 373.00426737 442.32861328 350.59985352 C441.59840303 348.47398214 441.00342442 346.37653704 440.5 344.1875 C412.2972619 343.29182624 412.2972619 343.29182624 384.5 347.1875 C383.67177734 347.38617676 382.84355469 347.58485352 381.99023438 347.78955078 C375.43387413 349.39496915 368.96052045 351.23426822 362.5 353.1875 C361.08291748 353.61458252 361.08291748 353.61458252 359.63720703 354.05029297 C323.66454955 365.07053639 289.36508835 382.1255404 257.22119141 401.546875 C254.52516566 403.17232745 251.81747779 404.77638369 249.10546875 406.375 C232.88278091 415.6737474 232.88278091 415.6737474 217.78027344 426.62646484 C214.6323312 429.18427752 213.29546474 430.22056782 209.1171875 430.046875 C207.88226562 429.68078125 206.64734375 429.3146875 205.375 428.9375 C203.85586566 428.52068613 202.33630052 428.10544049 200.81640625 427.69140625 C199.97352051 427.4505127 199.13063477 427.20961914 198.26220703 426.96142578 C152.45934977 414.12820521 104.86370046 407.55939015 57.5 404.1875 C56.31196777 404.09033691 55.12393555 403.99317383 53.89990234 403.89306641 C39.66083968 402.85779805 25.37912389 403.03583597 11.11083984 403.05712891 C7.29356598 403.06278517 3.47636239 403.05945486 -0.340909 403.05370522 C-24.2304125 403.02285945 -48.01823507 403.37736738 -71.80444336 405.80712891 C-74.33168013 406.06445293 -76.85996892 406.30833284 -79.38867188 406.55078125 C-90.41334852 407.63236862 -101.34467123 409.11160762 -112.28579712 410.83929443 C-114.26385427 411.15036372 -116.24352584 411.45112669 -118.22338867 411.75048828 C-134.26135017 414.17867655 -150.09784667 417.26721214 -165.9375 420.75 C-166.80273285 420.9395929 -167.6679657 421.12918579 -168.55941772 421.32452393 C-178.22732624 423.45164085 -187.80893485 425.71966388 -197.32055664 428.46850586 C-202.13309491 429.55680542 -205.26041641 429.87306246 -209.62890625 427.45703125 C-210.78191998 426.65000636 -211.92591814 425.83000695 -213.0625 425 C-214.39882264 424.06972095 -215.73749704 423.14281384 -217.078125 422.21875 C-217.79291016 421.72375 -218.50769531 421.22875 -219.24414062 420.71875 C-267.28753943 388.10747323 -322.37454304 359.70465626 -379.5 347.1875 C-380.17836914 347.02813965 -380.85673828 346.8687793 -381.55566406 346.70458984 C-398.53604473 342.82872016 -416.19973462 343.90460258 -433.5 344.1875 C-433.67160645 344.77668213 -433.84321289 345.36586426 -434.02001953 345.97290039 C-435.67278815 351.57273424 -437.46503439 357.10813825 -439.35424805 362.63232422 C-451.25939139 397.53623408 -457.69054129 433.27699481 -457.8125 470.1875 C-457.81511841 470.9584198 -457.81773682 471.7293396 -457.82043457 472.52362061 C-457.83041591 500.32663459 -453.11911538 527.16572038 -444.8671875 553.6640625 C-444.64071533 554.42291748 -444.41424316 555.18177246 -444.1809082 555.96362305 C-443.72879478 557.44024591 -443.2403214 558.90624316 -442.71557617 560.35864258 C-442.03515625 562.43359375 -442.03515625 562.43359375 -441.5 566.1875 C-443.25390625 568.99609375 -443.25390625 568.99609375 -446.0625 571.625 C-447.10256634 572.65653435 -448.13612688 573.694658 -449.1640625 574.73828125 C-449.71223633 575.29080566 -450.26041016 575.84333008 -450.82519531 576.41259766 C-489.05790177 616.93034926 -511.97175635 675.17498631 -521.5 729.1875 C-521.69754883 730.2398584 -521.89509766 731.2922168 -522.09863281 732.37646484 C-529.6570067 774.07122622 -527.01169027 819.24312863 -522.5 861.1875 C-522.38253418 862.3317041 -522.26506836 863.4759082 -522.14404297 864.65478516 C-521.42566207 871.52593636 -520.53866428 878.35766541 -519.5 885.1875 C-519.33274414 886.29109863 -519.16548828 887.39469727 -518.99316406 888.53173828 C-506.09297293 971.76211585 -470.48339774 1057.8192712 -401.5 1110.1875 C-400.04027407 1111.32540473 -398.58064796 1112.46343751 -397.12109375 1113.6015625 C-356.58875476 1144.90837811 -308.83361383 1166.06211487 -259.5 1179.1875 C-258.40510254 1179.48108398 -257.31020508 1179.77466797 -256.18212891 1180.07714844 C-240.04966881 1184.36358403 -223.86524836 1187.83107202 -207.42041016 1190.68066406 C-204.8445262 1191.12770762 -202.27142066 1191.58701443 -199.69921875 1192.0546875 C-195.63700102 1192.79105092 -191.57018731 1193.49666611 -187.5 1194.1875 C-186.76442871 1194.31366699 -186.02885742 1194.43983398 -185.27099609 1194.56982422 C-173.05397219 1196.64838833 -160.841891 1198.08206192 -148.5 1199.1875 C-150.03230034 1202.60132261 -151.74086011 1204.19913512 -154.6640625 1206.5234375 C-179.46417383 1229.00183628 -192.37447903 1265.81198963 -198.640625 1297.72265625 C-198.79305664 1298.44372559 -198.94548828 1299.16479492 -199.10253906 1299.90771484 C-199.55370724 1302.22924638 -199.55370724 1302.22924638 -199.63964844 1304.78369141 C-199.89231983 1307.6118287 -200.23884366 1309.63601961 -201.5 1312.1875 C-205.10627676 1314.81206809 -209.03372004 1316.06811248 -213.25 1317.4375 C-214.41635986 1317.8487915 -215.58271973 1318.26008301 -216.78442383 1318.68383789 C-227.53652252 1322.3988366 -238.43402321 1325.55993081 -249.5 1328.1875 C-250.18562012 1328.35330566 -250.87124023 1328.51911133 -251.57763672 1328.68994141 C-276.94275168 1334.70035679 -306.09020419 1336.42231101 -331.5 1330.1875 C-332.32371094 1329.98882324 -333.14742187 1329.79014648 -333.99609375 1329.58544922 C-362.51387357 1322.51426867 -386.81810658 1308.86420268 -408.05175781 1288.56835938 C-409.43734332 1287.24724143 -410.83941785 1285.94348229 -412.2421875 1284.640625 C-424.66794503 1272.7551178 -434.08572296 1258.58510381 -443.25195312 1244.13623047 C-452.96746201 1228.96620074 -464.07132785 1215.19007909 -476.5 1202.1875 C-477.13550781 1201.51074219 -477.77101563 1200.83398438 -478.42578125 1200.13671875 C-501.30914798 1176.37952417 -533.68192422 1159.12906289 -566.97265625 1157.984375 C-580.34147955 1157.75932521 -596.99956617 1157.48398184 -607.5 1167 C-609.04374809 1170.37694896 -608.97823811 1172.48115464 -608.5 1176.1875 C-606.18643317 1182.28084473 -603.27972979 1186.81746134 -598.5 1191.1875 C-598.5 1191.8475 -598.5 1192.5075 -598.5 1193.1875 C-597.93925781 1193.43371094 -597.37851562 1193.67992187 -596.80078125 1193.93359375 C-594.08899175 1195.41149601 -592.016855 1197.22120693 -589.6875 1199.25 C-585.3449446 1202.86879617 -580.94849435 1205.85621188 -576.0625 1208.6875 C-558.59707919 1218.89690426 -544.84657795 1232.25499637 -532.82226562 1248.41210938 C-531.49340591 1250.1963538 -530.1462559 1251.96561816 -528.796875 1253.734375 C-509.47942236 1279.29620199 -492.81974696 1308.27185102 -481.3125 1338.1875 C-474.53871015 1355.61408758 -464.41988609 1370.7087953 -451.5 1384.1875 C-450.75492188 1384.99574219 -450.00984375 1385.80398438 -449.2421875 1386.63671875 C-423.33264895 1413.87166273 -385.67449104 1426.89455467 -349.5 1433.1875 C-347.66888672 1433.51041016 -347.66888672 1433.51041016 -345.80078125 1433.83984375 C-329.64115235 1436.41112036 -313.0788957 1436.42254431 -296.75 1436.4375 C-295.86902649 1436.43883942 -294.98805298 1436.44017883 -294.0803833 1436.44155884 C-277.38210925 1436.43611501 -261.07273768 1435.27188165 -244.5 1433.1875 C-243.41509277 1433.05408203 -242.33018555 1432.92066406 -241.21240234 1432.78320312 C-235.67474811 1432.09728816 -230.14480735 1431.36677717 -224.61723328 1430.60443115 C-220.79955879 1430.09381572 -216.97822683 1429.61605141 -213.15600586 1429.14086914 C-212.41771294 1429.04884468 -211.67942001 1428.95682022 -210.91875458 1428.86200714 C-209.11253572 1428.6369091 -207.30627238 1428.41216813 -205.5 1428.1875 C-205.36678531 1441.92692443 -205.23627997 1455.66637202 -205.10884857 1469.40585136 C-205.04954208 1475.79190165 -204.98944422 1482.17794202 -204.92724609 1488.56396484 C-204.79558676 1502.13484432 -204.67706595 1515.70567585 -204.58433533 1529.27688217 C-204.53315118 1536.5320534 -204.45978864 1543.78657354 -204.3693161 1551.04135704 C-204.31591193 1555.63309954 -204.27945767 1560.22487261 -204.24708557 1564.81680679 C-204.22848716 1566.95228619 -204.20286963 1569.08771835 -204.16954041 1571.22301865 C-203.94615341 1585.84665889 -203.78099886 1599.89515693 -214.5 1611.1875 C-215.07492187 1611.80238281 -215.64984375 1612.41726563 -216.2421875 1613.05078125 C-226.14417569 1622.64461628 -238.84441201 1624.68535644 -252.1628418 1624.51367188 C-256.42208487 1624.29743338 -260.34283355 1623.33655894 -264.40234375 1622.0703125 C-265.13258255 1621.8484729 -265.86282135 1621.6266333 -266.6151886 1621.39807129 C-274.92688709 1618.82357334 -283.06403777 1615.79740639 -291.1875 1612.6875 C-291.98137115 1612.38547668 -292.77524231 1612.08345337 -293.59317017 1611.77227783 C-309.4514183 1605.72989335 -325.02805337 1599.15635864 -340.5 1592.1875 C-341.65628906 1591.66913574 -342.81257813 1591.15077148 -344.00390625 1590.61669922 C-357.35706415 1584.61191809 -370.48011216 1578.31324215 -383.35449219 1571.34033203 C-385.42718403 1570.22662574 -387.5108695 1569.13806582 -389.6015625 1568.05859375 C-435.26144987 1544.4217933 -479.19176267 1515.31354443 -518.82373047 1482.56396484 C-521.06763312 1480.72138938 -523.34520998 1478.92288319 -525.625 1477.125 C-535.56805157 1469.19064572 -545.08585659 1460.73723959 -554.5 1452.1875 C-556.06244746 1450.79160785 -557.62494901 1449.39577625 -559.1875 1448 C-560.96067525 1446.39842236 -562.73131487 1444.79403487 -564.5 1443.1875 C-564.98936035 1442.74470703 -565.4787207 1442.30191406 -565.98291016 1441.84570312 C-575.24826818 1433.43156921 -584.14256075 1424.65124158 -593 1415.8125 C-593.56630127 1415.24878693 -594.13260254 1414.68507385 -594.71606445 1414.10427856 C-600.31917352 1408.52137203 -605.87553425 1402.93816353 -611.01464844 1396.91796875 C-613.38349163 1394.15821192 -615.88730509 1391.52717407 -618.375 1388.875 C-622.83504356 1384.0810086 -627.06309553 1379.16239004 -631.1640625 1374.0546875 C-633.83875557 1370.77170303 -636.60234125 1367.57510296 -639.375 1364.375 C-644.74717832 1358.14239412 -649.89313723 1351.76591427 -654.91308594 1345.24707031 C-656.04894812 1343.77289594 -657.18798412 1342.30116487 -658.32910156 1340.83105469 C-667.20679072 1329.38781511 -675.74214504 1317.79422334 -683.78564453 1305.74951172 C-685.63671325 1302.98318943 -687.50347067 1300.22782611 -689.37109375 1297.47265625 C-740.60620691 1221.61051552 -777.81948167 1138.33875293 -818.5 688.1875 C-818.28730469 686.91277832 -818.07460938 685.63805664 -817.85546875 684.32470703 C-815.0796524 667.95410624 -811.42570621 651.85928431 -807.38525391 635.7578125 C-806.53628028 632.33382181 -805.72175064 628.90359475 -804.91796875 625.46875 C-789.12976628 558.82960159 -762.49995948 492.54227538 -729.01806641 432.89550781 C-727.46294244 430.12139474 -725.92423475 427.3385922 -724.38671875 424.5546875 C-709.11729459 397.05518394 -691.89895299 370.6900287 -673.5 345.1875 C-672.94844238 344.42195801 -672.39688477 343.65641602 -671.82861328 342.86767578 C-664.16160179 332.25930022 -656.2135532 321.95291332 -647.87646484 311.86376953 C-646.03388938 309.61986688 -644.23538319 307.34229002 -642.4375 305.0625 C-635.19892507 295.99137446 -627.54420817 287.24201995 -619.73046875 278.6640625 C-617.84465912 276.5701863 -615.98721091 274.45698244 -614.13671875 272.33203125 C-604.07751088 260.82126858 -593.35583896 249.94224863 -582.5625 239.125 C-582.02465881 238.58457062 -581.48681763 238.04414124 -580.93267822 237.48733521 C-575.52722579 232.06136774 -570.10730253 226.70399135 -564.28149414 221.72387695 C-561.33082217 219.17919027 -558.52119531 216.48576657 -555.6875 213.8125 C-550.64089056 209.08553624 -545.46665852 204.61240857 -540.06640625 200.2890625 C-537.52440637 198.20748573 -535.10470665 196.0371162 -532.6875 193.8125 C-527.19219212 188.81754983 -521.37558039 184.27759163 -515.50390625 179.74121094 C-513.35986404 178.07884682 -511.22619344 176.40377563 -509.09375 174.7265625 C-500.73147372 168.16073971 -492.31056031 161.73265836 -483.58984375 155.6484375 C-481.11666781 153.91952572 -478.65256594 152.17795443 -476.1875 150.4375 C-465.04599061 142.59763135 -453.8137561 134.98387613 -442.20605469 127.85107422 C-440.25871269 126.65392622 -438.31441091 125.45182772 -436.37207031 124.24658203 C-420.73742726 114.55038032 -404.93166495 105.37275989 -388.62646484 96.83300781 C-385.60000768 95.24013562 -382.5898598 93.61990646 -379.58203125 91.9921875 C-362.30544008 82.72171733 -344.4717338 74.82110205 -326.48504639 67.046875 C-324.69819188 66.2733021 -322.9136453 65.49440341 -321.12939453 64.71484375 C-244.27644251 31.19720154 -159.6825048 10.36870458 -47.5 1.1875 C-46.7411853 1.1391098 -45.98237061 1.0907196 -45.20056152 1.04086304 C-30.1375082 0.0981873 -15.0891034 -0.01347799 0 0 Z " fill="#6A2686" transform="translate(1022.5,191.8125)"/>
<path d="M0 0 C2.6593986 1.42778757 5.32881494 2.83570518 7.99902344 4.24316406 C22.81135121 12.10056852 37.12864007 20.6407257 51.39355469 29.43701172 C53.98373693 31.02715053 56.58296669 32.59835816 59.19433594 34.15332031 C85.75600331 50.0104822 111.06489748 67.92741001 135.52978516 86.82861328 C137.36282558 88.24214734 139.20108168 89.64849578 141.04199219 91.05175781 C150.80638499 98.50237397 160.27486411 106.2751746 169.62646484 114.23413086 C173.15964321 117.23601609 176.7396836 120.17059393 180.35058594 123.07910156 C184.06366901 126.09900415 187.49302312 129.22889516 190.81933594 132.66503906 C193.16877535 135.02556073 195.68732253 137.16792554 198.20605469 139.34472656 C202.45052429 143.05589792 206.58735976 146.88522086 210.72607422 150.71337891 C211.93853686 151.83312183 213.15320942 152.95047478 214.36962891 154.06591797 C222.28139915 161.32505021 229.97575755 168.6671087 237.1394043 176.67407227 C239.51756596 179.31546406 241.89393998 181.75536797 244.64746094 184.00878906 C246.91885047 185.87233241 248.73696199 187.58867933 250.60058594 189.82910156 C253.74593293 193.51603148 256.99291498 197.08927947 260.28808594 200.64160156 C261.33243134 201.77043883 262.37670215 202.89934511 263.42089844 204.02832031 C265.33208641 206.09367505 267.24361806 208.1587106 269.15527344 210.22363281 C273.97971281 215.47641026 278.59121485 220.8412543 283.06933594 226.39160156 C285.77339095 229.69265574 288.55721353 232.9162873 291.35058594 236.14160156 C302.72950826 249.34617289 313.07994869 263.34668229 323.47558594 277.32910156 C323.99185547 278.02213379 324.508125 278.71516602 325.04003906 279.42919922 C332.08877281 288.90419629 338.86121668 298.54646881 345.47558594 308.32910156 C346.00522949 309.10995117 346.53487305 309.89080078 347.08056641 310.6953125 C366.7640901 339.76371042 384.56978243 369.8249319 401.11083984 400.78320312 C402.28800425 402.9791728 403.47687916 405.16785538 404.67480469 407.35253906 C426.49927529 447.30443879 443.59033263 490.37251335 458.47558594 533.32910156 C458.8898584 534.51213867 459.30413086 535.69517578 459.73095703 536.9140625 C468.06002263 560.74853093 474.99605034 584.93208705 481.47558594 609.32910156 C481.65820984 610.01514465 481.84083374 610.70118774 482.0289917 611.40802002 C496.71681301 666.78743414 504.46289766 723.81891275 509.16308594 780.82910156 C509.25449356 781.92912003 509.25449356 781.92912003 509.3477478 783.05136108 C510.90271953 801.97878828 511.63574403 820.88250254 511.64355469 839.87207031 C511.64678757 841.77842735 511.65015294 843.68478416 511.65364075 845.59114075 C511.65956762 849.56003389 511.66148758 853.52890549 511.66088867 857.49780273 C511.66080783 861.48710709 511.66769438 865.47629557 511.68139648 869.46557617 C511.76484459 894.16898565 511.33229525 918.69179262 509.47558594 943.32910156 C509.39988373 944.37959686 509.32418152 945.43009216 509.2461853 946.51242065 C508.7959292 952.7484064 508.28665725 958.97714655 507.72558594 965.20410156 C507.60153381 966.58997467 507.60153381 966.58997467 507.47497559 968.00384521 C499.5701088 1055.20590265 479.82734261 1141.59552026 426.92431641 1275.05273438 C425.61060164 1278.02375767 424.30903829 1280.99975642 423.01074219 1283.97753906 C418.82031915 1293.52229098 414.25862052 1302.78743557 409.32714844 1311.96972656 C407.16824956 1315.99740782 405.0733203 1320.05408331 402.99902344 1324.12597656 C394.99077101 1339.84089272 386.60547817 1355.2277141 377.47558594 1370.32910156 C376.81349121 1371.42448242 376.15139648 1372.51986328 375.46923828 1373.6484375 C368.17514121 1385.68893422 360.81509554 1397.68137521 352.86132812 1409.29980469 C351.20513224 1411.72515709 349.56332528 1414.16002964 347.92089844 1416.59472656 C341.10891303 1426.66977771 334.19298475 1436.63491096 326.91943359 1446.38183594 C325.31384606 1448.54723434 323.72783179 1450.72619153 322.14355469 1452.90722656 C315.00437091 1462.71417926 307.63620707 1472.26301947 299.89941406 1481.60546875 C297.88718121 1484.04140221 295.90250844 1486.49952632 293.91308594 1488.95410156 C289.55699058 1494.2720355 285.0884588 1499.48964418 280.60058594 1504.69628906 C278.48521075 1507.15049633 276.38206491 1509.61442787 274.28808594 1512.08691406 C269.70218454 1517.49284405 265.15323468 1522.83226295 260.04980469 1527.76269531 C256.38634613 1531.40797294 253.08518906 1535.41517712 249.76074219 1539.36816406 C246.92125069 1542.70343979 244.0805008 1545.7571467 240.72558594 1548.57910156 C237.37044577 1551.42298227 234.46578143 1554.48457076 231.53808594 1557.76660156 C224.98561901 1565.08334767 217.79935832 1571.70209543 210.59472656 1578.3671875 C208.57547022 1580.23662805 206.56332459 1582.11336777 204.55371094 1583.99316406 C198.61523123 1589.54222242 192.65211815 1595.04448736 186.47558594 1600.32910156 C185.44163915 1601.21701456 184.40779461 1602.10504662 183.37402344 1602.99316406 C180.97719124 1605.05127291 178.57676651 1607.10510812 176.17480469 1609.15722656 C173.79072519 1611.19626655 171.4186613 1613.24781878 169.05761719 1615.31347656 C161.5623618 1621.84938252 153.83380339 1627.9824287 145.89746094 1633.97363281 C142.14150369 1636.81059697 138.43449023 1639.70525316 134.73535156 1642.61572266 C126.15138249 1649.36159464 117.37261419 1655.74648441 108.40722656 1661.97363281 C106.64864589 1663.20766212 104.90968446 1664.46301205 103.17871094 1665.73535156 C91.65310864 1674.1687191 79.55519107 1681.72069112 67.47558594 1689.32910156 C66.55261719 1689.91127441 65.62964844 1690.49344727 64.67871094 1691.09326172 C43.50993649 1704.41377567 21.90207525 1716.88338064 -0.20800781 1728.57470703 C-2.41852901 1729.74408316 -4.62687086 1730.91758832 -6.83300781 1732.09521484 C-85.18537139 1773.89006367 -172.21803607 1803.05203737 -383.99142456 1838.13412476 C-385.80493645 1838.27371979 -387.61781297 1838.4216679 -389.4302063 1838.57510376 C-411.53388627 1840.43816899 -433.5609628 1840.67271022 -455.73217773 1840.64477539 C-459.69551013 1840.64016921 -463.65853372 1840.64699121 -467.62182617 1840.6652832 C-547.5227999 1841.03023608 -626.92112287 1830.27242893 -704.52441406 1811.32910156 C-705.19226929 1811.16708252 -705.86012451 1811.00506348 -706.54821777 1810.83813477 C-762.49841462 1797.25364019 -816.85947023 1778.58235277 -869.52441406 1755.32910156 C-870.18671021 1755.03672607 -870.84900635 1754.74435059 -871.53137207 1754.44311523 C-888.86519364 1746.77814464 -905.99541754 1738.87886718 -922.67724609 1729.86230469 C-925.71987736 1728.22384436 -928.77538695 1726.61127712 -931.83300781 1725.00097656 C-946.04550088 1717.48158851 -959.9185061 1709.50518219 -973.62695312 1701.10351562 C-976.31365516 1699.45817097 -979.00774736 1697.82574801 -981.70410156 1696.19628906 C-1003.31772076 1683.06028969 -1024.49205303 1669.03276843 -1044.64941406 1653.75 C-1046.34100408 1652.46809194 -1048.03956001 1651.19653652 -1049.74316406 1649.93066406 C-1052.68054528 1647.74342052 -1055.60481488 1645.54002433 -1058.52441406 1643.32910156 C-1059.5025708 1642.58877686 -1059.5025708 1642.58877686 -1060.50048828 1641.83349609 C-1073.25256167 1632.17001958 -1085.64456573 1622.14846056 -1097.82421875 1611.77490234 C-1099.53618501 1610.31909186 -1101.25274245 1608.86883224 -1102.96972656 1607.41894531 C-1109.6951269 1601.71974099 -1116.24929292 1595.87609013 -1122.68066406 1589.84667969 C-1125.72770385 1586.99051369 -1128.79670443 1584.18020696 -1131.96191406 1581.45410156 C-1135.04363724 1578.79766927 -1137.89720238 1575.97676153 -1140.74707031 1573.07519531 C-1142.5903498 1571.26432514 -1144.50264205 1569.57588803 -1146.46191406 1567.89160156 C-1152.07799536 1563.03445017 -1157.26692868 1557.85252194 -1162.08691406 1552.20410156 C-1164.25922925 1549.67219679 -1166.45043094 1547.45020124 -1169.02441406 1545.32910156 C-1172.18816267 1542.71010437 -1174.7922249 1539.84749467 -1177.45019531 1536.72363281 C-1180.03555948 1533.7390222 -1182.71333856 1530.84792821 -1185.39941406 1527.95410156 C-1192.82814664 1519.92742975 -1200.13785776 1511.87671475 -1207.01660156 1503.36816406 C-1209.91274487 1499.85850753 -1212.90155478 1496.43922326 -1215.89941406 1493.01660156 C-1236.78268447 1469.06385826 -1255.26736595 1442.80958869 -1273.05029297 1416.50878906 C-1274.37484649 1414.55025746 -1275.70502441 1412.59567941 -1277.03613281 1410.64160156 C-1295.05576074 1384.04931347 -1311.03029994 1356.19115097 -1326.15966797 1327.875 C-1327.33683238 1325.67903033 -1328.52570729 1323.49034774 -1329.72363281 1321.30566406 C-1346.83463794 1289.98223938 -1360.70947902 1256.6084745 -1373.52441406 1223.32910156 C-1374.19585449 1221.59321777 -1374.19585449 1221.59321777 -1374.88085938 1219.82226562 C-1394.13353609 1169.70351785 -1408.32953397 1118.00141385 -1418.52441406 1065.32910156 C-1418.688125 1064.48671936 -1418.85183594 1063.64433716 -1419.02050781 1062.77642822 C-1425.26547841 1030.55784431 -1429.76755369 998.26400859 -1432.71191406 965.57910156 C-1432.79081879 964.71178406 -1432.86972351 963.84446655 -1432.95101929 962.9508667 C-1433.53793615 956.41462336 -1434.04562436 949.8740863 -1434.52441406 943.32910156 C-1434.61301697 942.1524292 -1434.70161987 940.97575684 -1434.79290771 939.76342773 C-1436.49627496 916.56494039 -1436.8399498 893.43534248 -1436.78515625 870.1796875 C-1436.77376273 865.30631162 -1436.7805502 860.4331543 -1436.79203415 855.55978584 C-1436.83898094 832.07295448 -1436.27643071 808.7519436 -1434.52441406 785.32910156 C-1434.44880249 784.27742798 -1434.37319092 783.22575439 -1434.29528809 782.14221191 C-1433.84499361 775.90742477 -1433.33531935 769.67987233 -1432.77441406 763.45410156 C-1432.69171265 762.52985382 -1432.60901123 761.60560608 -1432.52380371 760.65335083 C-1425.02099038 677.85244971 -1406.82998976 595.99344132 -1350.52441406 450.32910156 C-1350.08967773 449.34103516 -1349.65494141 448.35296875 -1349.20703125 447.33496094 C-1339.99972555 426.44740411 -1329.3961654 406.38752791 -1318.52441406 386.32910156 C-1317.8000415 384.99250488 -1317.8000415 384.99250488 -1317.06103516 383.62890625 C-1305.04721142 361.54143516 -1291.90599471 339.97728211 -1277.77832031 319.17675781 C-1276.81787497 317.76152215 -1275.86002493 316.34452489 -1274.90332031 314.92675781 C-1267.45583314 303.89166392 -1259.93072299 292.94646642 -1251.96826172 282.27636719 C-1250.36267418 280.11096878 -1248.77665991 277.93201159 -1247.19238281 275.75097656 C-1240.05446106 265.94575748 -1232.68781768 256.3981443 -1224.95263672 247.05712891 C-1222.91979137 244.59755978 -1220.91143783 242.11821341 -1218.89941406 239.64160156 C-1211.63762264 230.78381203 -1204.25667139 222.04804811 -1196.55175781 213.57128906 C-1194.78474207 211.61701732 -1193.05527877 209.63850419 -1191.33691406 207.64160156 C-1187.78076564 203.55830643 -1184.09185532 199.60123071 -1180.39941406 195.64160156 C-1179.80104736 194.99940674 -1179.20268066 194.35721191 -1178.58618164 193.69555664 C-1174.58563207 189.41929878 -1170.48741879 185.26089243 -1166.31347656 181.15332031 C-1162.7373764 177.62240554 -1159.24021456 174.07753212 -1155.96191406 170.26660156 C-1150.57966845 164.01625182 -1144.70719082 158.41605 -1138.45800781 153.04394531 C-1136.56946809 151.36905857 -1134.79285759 149.62962569 -1133.02441406 147.82910156 C-1130.07841192 144.83675781 -1126.99458399 142.07585984 -1123.81347656 139.33691406 C-1121.58907158 137.38581481 -1119.41343808 135.38801248 -1117.24462891 133.37548828 C-1112.1352797 128.6372546 -1106.91473083 124.12718171 -1101.48144531 119.75878906 C-1098.69437184 117.46874983 -1095.98222173 115.11549985 -1093.27636719 112.73120117 C-1085.36666274 105.76905627 -1077.14311296 99.34327067 -1068.72900391 93.00585938 C-1065.72178818 90.71864369 -1062.75537449 88.3811539 -1059.78637695 86.04467773 C-1051.20246785 79.29706737 -1042.42225758 72.91228498 -1033.45605469 66.68457031 C-1031.69747402 65.45054101 -1029.95851258 64.19519107 -1028.22753906 62.92285156 C-1016.70193676 54.48948403 -1004.6040192 46.937512 -992.52441406 39.32910156 C-991.60144531 38.74692871 -990.67847656 38.16475586 -989.72753906 37.56494141 C-968.51806927 24.21881979 -946.86555298 11.7405978 -924.71533203 0.02294922 C-921.66563338 -1.59593442 -918.62759635 -3.23496765 -915.59082031 -4.87792969 C-897.68290669 -14.47932987 -879.17974414 -22.6480541 -860.52441406 -30.67089844 C-859.87003357 -30.95276001 -859.21565308 -31.23462158 -858.54144287 -31.52502441 C-776.45430434 -66.83103619 -690.04918078 -89.89955781 -519.52441406 -108.67089844 C-518.37199219 -108.73019531 -517.21957031 -108.78949219 -516.03222656 -108.85058594 C-423.5647217 -113.37696729 -329.89857576 -107.04479366 0 0 Z M-544.06738281 -76.92736816 C-546.68502726 -76.65413332 -549.30375315 -76.39367597 -551.92285156 -76.13476562 C-616.78830597 -69.66508562 -680.45541384 -56.61858125 -742.52441406 -36.67089844 C-743.96336309 -36.21105075 -745.40232789 -35.75125244 -746.84130859 -35.29150391 C-766.03364188 -29.14147973 -784.8788954 -22.34298097 -803.52441406 -14.67089844 C-805.14089844 -14.00622559 -805.14089844 -14.00622559 -806.79003906 -13.328125 C-828.91163426 -4.18426515 -851.18046027 5.17912154 -872.42431641 16.23779297 C-874.89629943 17.52235053 -877.37659334 18.79027251 -879.85644531 20.05957031 C-914.99796489 38.12929691 -949.22441635 58.55132238 -981.52441406 81.32910156 C-982.380271 81.93069092 -982.380271 81.93069092 -983.25341797 82.54443359 C-998.65017038 93.38640572 -1013.84500742 104.53126811 -1028.52441406 116.32910156 C-1029.16475586 116.84327637 -1029.80509766 117.35745117 -1030.46484375 117.88720703 C-1042.30336611 127.41123819 -1054.01270181 137.06484116 -1065.26269531 147.28222656 C-1067.33115281 149.15419846 -1069.4200232 150.99773546 -1071.52441406 152.82910156 C-1078.3250053 158.76590803 -1085.07433464 164.71035561 -1091.34472656 171.21191406 C-1093.20622121 173.02003252 -1095.10628105 174.70009033 -1097.07519531 176.38769531 C-1101.97721056 180.64834657 -1106.56280539 185.21688723 -1111.14282227 189.81713867 C-1112.58466627 191.26434541 -1114.03178522 192.70612182 -1115.47949219 194.14746094 C-1120.12215978 198.78674836 -1124.64086724 203.48351805 -1128.9128418 208.46801758 C-1131.68982357 211.67494563 -1134.61536419 214.74239056 -1137.52441406 217.82910156 C-1142.29039272 222.91489017 -1147.01097617 228.01619822 -1151.52441406 233.32910156 C-1152.30558594 234.24304688 -1153.08675781 235.15699219 -1153.89160156 236.09863281 C-1164.58811315 248.64989335 -1175.18902013 261.29817624 -1185.11962891 274.46777344 C-1186.73486316 276.60794479 -1188.35860628 278.7415665 -1189.98144531 280.87597656 C-1222.69736983 324.05006029 -1252.75555085 370.31157559 -1276.43115234 419.11181641 C-1277.71494722 421.71552902 -1279.03848509 424.29729315 -1280.36425781 426.87988281 C-1317.75417304 500.0104135 -1343.12432581 579.05292628 -1370.83691406 739.70410156 C-1370.9123645 740.41622803 -1370.98781494 741.12835449 -1371.06555176 741.86206055 C-1371.63650107 747.34483903 -1372.10206981 752.83298731 -1372.52441406 758.32910156 C-1372.61054962 759.44476501 -1372.69668518 760.56042847 -1372.78543091 761.7098999 C-1374.45988783 784.1581631 -1374.88937911 806.53540981 -1374.8422699 829.04066086 C-1374.83682566 831.74806609 -1374.83446128 834.45546258 -1374.83239746 837.16287231 C-1374.80182901 862.90353736 -1374.43810957 888.51568375 -1371.7522583 914.1394043 C-1371.5214652 916.35744159 -1371.30257788 918.57638987 -1371.08642578 920.79589844 C-1370.08379726 930.99856809 -1368.88141115 941.1676964 -1367.52441406 951.32910156 C-1367.4210675 952.10366699 -1367.31772095 952.87823242 -1367.21124268 953.67626953 C-1355.58430129 1040.15452923 -1332.25608171 1125.66019026 -1290.52441406 1216.32910156 C-1289.5969735 1218.30419427 -1288.66989834 1220.2794586 -1287.74316406 1222.25488281 C-1276.27299616 1246.56400627 -1264.06774315 1270.48941809 -1250.20703125 1293.52880859 C-1248.56248956 1296.26573448 -1246.93689337 1299.01320044 -1245.31347656 1301.76269531 C-1238.30936933 1313.53450694 -1230.86891006 1324.99553742 -1223.27441406 1336.39160156 C-1222.81446045 1337.08252899 -1222.35450684 1337.77345642 -1221.88061523 1338.48532104 C-1203.32906454 1366.30808795 -1183.28330775 1393.04390395 -1161.59936523 1418.50219727 C-1158.78310832 1421.81495202 -1156.04399013 1425.17592022 -1153.33691406 1428.57910156 C-1148.63545235 1434.36878587 -1143.51999067 1439.74839204 -1138.37133789 1445.140625 C-1135.18511989 1448.48047615 -1132.05350638 1451.8397352 -1129.04003906 1455.33691406 C-1125.34991275 1459.59366747 -1121.40595608 1463.55928926 -1117.39941406 1467.51660156 C-1116.70976563 1468.20173828 -1116.02011719 1468.886875 -1115.30957031 1469.59277344 C-1114.02413666 1470.86960476 -1112.73766461 1472.14539238 -1111.44970703 1473.41967773 C-1107.5215448 1477.31546226 -1103.62014134 1481.2376338 -1099.72363281 1485.16503906 C-1097.88646541 1487.01146505 -1096.04922361 1488.85781702 -1094.21191406 1490.70410156 C-1093.29990234 1491.62449219 -1092.38789062 1492.54488281 -1091.44824219 1493.49316406 C-1086.85856316 1498.09929355 -1082.23007849 1502.57801406 -1077.29174805 1506.80908203 C-1074.69916605 1509.03886729 -1072.21413362 1511.37336279 -1069.71191406 1513.70410156 C-1065.09007575 1517.97429416 -1060.33017458 1522.01135529 -1055.42675781 1525.95800781 C-1052.13477878 1528.64741733 -1048.92446912 1531.42092111 -1045.71191406 1534.20410156 C-1039.44465709 1539.61052784 -1033.00981888 1544.76024431 -1026.46386719 1549.82373047 C-1024.34707154 1551.46675186 -1022.24002519 1553.12178664 -1020.13378906 1554.77832031 C-1011.71452353 1561.38768615 -1003.22879153 1567.84536669 -994.45458984 1573.97607422 C-992.30319695 1575.4841718 -990.161845 1577.00598095 -988.02050781 1578.52832031 C-949.74938622 1605.64955724 -909.39550084 1629.22202685 -867.52441406 1650.32910156 C-866.93505066 1650.62667358 -866.34568726 1650.92424561 -865.73846436 1651.23083496 C-834.86495535 1666.79760847 -803.06855588 1680.20579719 -770.44335938 1691.6519165 C-768.46898138 1692.34866344 -766.49828212 1693.05502871 -764.52832031 1693.76416016 C-696.9084402 1718.08542781 -626.11129302 1733.03634213 -554.71191406 1740.57910156 C-553.64725922 1740.69479996 -553.64725922 1740.69479996 -552.56109619 1740.81283569 C-524.03672001 1743.86910807 -495.35413183 1744.6733483 -466.68774414 1744.58984375 C-462.74711487 1744.57844052 -458.80675577 1744.58525884 -454.8661356 1744.5967226 C-426.58482332 1744.66633021 -398.35489476 1743.55457812 -370.21191406 1740.64160156 C-369.41143646 1740.56017914 -368.61095886 1740.47875671 -367.78622437 1740.39486694 C-306.3406227 1734.0685484 -245.2213238 1721.6191658 -186.52441406 1702.32910156 C-185.09165735 1701.86368484 -183.65870585 1701.39886745 -182.22558594 1700.93457031 C-162.76897175 1694.62471491 -143.48585903 1688.0228303 -124.52441406 1680.32910156 C-122.72641357 1679.60086182 -122.72641357 1679.60086182 -120.89208984 1678.85791016 C-85.27700185 1664.37888445 -50.43383972 1648.00170505 -17.10986328 1628.80322266 C-14.01159903 1627.03671467 -10.88273954 1625.33180379 -7.74804688 1623.63110352 C9.79554973 1614.07646284 26.48163158 1603.07732668 43.10058594 1592.01660156 C43.71744263 1591.60661926 44.33429932 1591.19663696 44.96984863 1590.77423096 C71.56635676 1573.07076919 96.93160557 1553.76552728 121.47558594 1533.32910156 C122.08354004 1532.82314453 122.69149414 1532.3171875 123.31787109 1531.79589844 C130.01633401 1526.20851932 136.57159258 1520.49034979 142.99902344 1514.59082031 C145.11306173 1512.66017651 147.24932542 1510.76597024 149.41308594 1508.89160156 C159.26443957 1500.29914302 168.63342842 1491.3078548 177.81323242 1482.00732422 C181.69719666 1478.08628292 185.61313127 1474.19741365 189.53027344 1470.30957031 C190.97646867 1468.87075698 192.42217738 1467.43145675 193.86767578 1465.99194336 C194.85179793 1465.01284389 195.83681655 1464.03464462 196.82275391 1463.05737305 C202.04723284 1457.87740605 207.18697563 1452.67175614 211.97314453 1447.07885742 C214.19546202 1444.49072784 216.52547378 1442.01278053 218.85058594 1439.51660156 C223.10364809 1434.91384318 227.11792376 1430.17163868 231.04589844 1425.28613281 C233.33593767 1422.49905934 235.68918765 1419.78690923 238.07348633 1417.08105469 C244.43349196 1409.85544167 250.37080296 1402.39694203 256.15917969 1394.70800781 C258.38724878 1391.74938087 260.64966018 1388.82312638 262.94824219 1385.91894531 C270.22739669 1376.7158341 277.0400447 1367.3126005 283.59277344 1357.57910156 C285.81006818 1354.28827497 288.10065888 1351.07142022 290.47558594 1347.89160156 C305.68704225 1327.19509182 318.8594253 1304.67829396 331.47558594 1282.32910156 C332.06178711 1281.29350098 332.64798828 1280.25790039 333.25195312 1279.19091797 C374.89204869 1205.38603848 406.30000593 1125.74056502 446.2555542 917.57348633 C446.47052566 915.38071782 446.6997154 913.18990059 446.93310547 910.99902344 C452.4719125 858.26260831 452.17777767 802.51443024 446.7288208 749.7855835 C446.46349043 747.21177023 446.2090932 744.63701278 445.95556641 742.06201172 C437.75665828 659.84743846 418.63690703 578.6781971 328.47558594 376.32910156 C327.90211426 375.35376465 327.32864258 374.37842773 326.73779297 373.37353516 C314.23937865 352.12723632 301.26323247 331.15258753 286.80761719 311.17431641 C285.53094583 309.40578962 284.26651224 307.6292926 283.00683594 305.84863281 C280.51493461 302.32866439 278.00110386 298.82501989 275.47558594 295.32910156 C274.9523877 294.60464844 274.42918945 293.88019531 273.89013672 293.13378906 C266.18248033 282.49210706 258.22170597 272.13392569 249.85205078 262.00537109 C248.00947532 259.76146845 246.21096912 257.48389158 244.41308594 255.20410156 C239.2780444 248.76354099 233.86796479 242.55409827 228.47558594 236.32910156 C227.81300781 235.56339844 227.15042969 234.79769531 226.46777344 234.00878906 C222.62895258 229.59860882 218.72275206 225.2500712 214.80371094 220.91113281 C213.24644004 219.18402533 211.69437738 217.45220806 210.14746094 215.71582031 C206.29083779 211.39351648 202.38426593 207.18648311 198.24682617 203.1328125 C196.54080012 201.39551126 194.96266095 199.60156581 193.38574219 197.74707031 C188.99213168 192.69696996 184.28019414 187.98736494 179.53808594 183.26660156 C178.68279297 182.40744141 177.8275 181.54828125 176.94628906 180.66308594 C172.47896333 176.20257535 167.9415814 171.90195742 163.15307617 167.78833008 C161.1629376 166.05713255 159.30735816 164.22629422 157.47558594 162.32910156 C154.30442564 159.11475425 151.01975841 156.11159193 147.59667969 153.16894531 C145.25067535 151.13401338 142.95822143 149.0461919 140.66308594 146.95410156 C136.34648881 143.05863586 131.90157463 139.36051938 127.38183594 135.70410156 C124.82264006 133.61271568 122.29967064 131.48842792 119.78735352 129.34155273 C112.50927871 123.12461314 105.05050951 117.17913075 97.47558594 111.32910156 C96.69650879 110.72404785 95.91743164 110.11899414 95.11474609 109.49560547 C84.24723347 101.06503749 73.24012811 92.96424803 61.83105469 85.28222656 C57.94688674 82.66513192 54.1408388 79.95464236 50.35058594 77.20410156 C26.65781225 60.15142755 1.04027297 45.37062604 -24.52441406 31.32910156 C-25.60658203 30.73387695 -26.68875 30.13865234 -27.80371094 29.52539062 C-65.42540363 8.91179346 -104.42986607 -8.47664821 -144.52441406 -23.67089844 C-145.69327148 -24.11385254 -146.86212891 -24.55680664 -148.06640625 -25.01318359 C-226.59762901 -54.47654088 -309.52134878 -71.17732791 -439.70800781 -79.87402344 C-441.40372239 -79.88104626 -443.0994367 -79.88813307 -444.79515076 -79.89527893 C-450.18407575 -79.91467617 -455.57295768 -79.91971319 -460.96191406 -79.92089844 C-461.88050453 -79.92134029 -462.799095 -79.92178215 -463.74552155 -79.9222374 C-490.6062885 -79.92901289 -517.32663502 -79.7381854 -544.06738281 -76.92736816 Z " fill="#000000" transform="translate(1486.5244140625,191.6708984375)"/>
<path d="M0 0 C2.70813685 0.00565336 5.4162674 0.00846565 8.12440872 0.0110817 C34.96796807 0.04875297 61.62937356 0.54653546 88.34996414 3.31805801 C90.13249418 3.49698872 91.91504695 3.67569303 93.69762039 3.85419083 C157.44527651 10.32259954 220.26213795 23.06512031 281.28410721 42.65527725 C283.29649337 43.3009032 285.31014914 43.94242245 287.32408524 44.58319473 C324.72335238 56.51560275 360.84929554 71.6039449 396.34996414 88.31805801 C397.41134598 88.81450821 398.47272781 89.3109584 399.56627274 89.82245255 C413.51580422 96.35577742 427.18074329 103.25702586 440.61851883 110.78827286 C443.38052516 112.33517415 446.14999086 113.86807388 448.92027664 115.40008926 C479.16833698 132.21443685 508.33448732 151.00139005 536.34996414 171.31805801 C537.11743973 171.87444962 537.88491531 172.43084122 538.67564774 173.00409317 C549.07199715 180.56223295 559.32875017 188.26891244 569.34996414 196.31805801 C569.98498856 196.82691544 570.62001297 197.33577286 571.27428055 197.8600502 C580.79126631 205.49871406 590.1363505 213.31659879 599.34996414 221.31805801 C600.10793289 221.97419083 600.86590164 222.63032364 601.64683914 223.30633926 C606.11436459 227.19308641 610.51125393 231.15647127 614.90465164 235.12665176 C617.07393314 237.07068837 619.2674001 238.98032152 621.47496414 240.88055801 C624.8478145 243.8131769 627.99610666 246.91584847 631.09996414 250.13055801 C633.00809769 251.98568785 634.95388518 253.71408596 636.97105789 255.44696426 C642.00991488 259.82548482 646.70470235 264.52651018 651.41246414 269.25555801 C652.2716243 270.11085098 653.13078445 270.96614395 654.01597977 271.84735489 C658.47649035 276.31468062 662.77710829 280.85206255 666.89073563 285.64056778 C668.62193316 287.63070635 670.45277148 289.48628579 672.34996414 291.31805801 C675.54257726 294.46785831 678.52157693 297.7302529 681.44371414 301.13055801 C683.65942062 303.67317201 685.94095006 306.14916 688.22496414 308.63055801 C692.31876623 313.11953858 696.20466082 317.73049277 700.01793289 322.45868301 C702.0546325 324.95594283 704.13297327 327.41000158 706.23448563 329.85272598 C712.69860684 337.38129484 718.71316667 345.21700259 724.69273758 353.13299942 C726.32081073 355.27961915 727.96157353 357.41578797 729.60777664 359.54852676 C743.30181739 377.29776922 756.07795057 395.5565102 768.34996414 414.31805801 C768.94422195 415.22539688 769.53847977 416.13273575 770.15074539 417.06756973 C799.81445301 462.54243528 825.72055604 511.08200877 846.34996414 561.31805801 C846.62995255 561.99964981 846.90994095 562.68124161 847.19841385 563.3834877 C877.52462309 637.46777747 898.47776016 715.25564165 912.08568192 824.68524551 C912.25653893 826.38734437 912.42994775 828.08918986 912.60643387 829.79071426 C918.1441137 883.25721713 918.27259542 939.68593171 912.57780838 993.14398575 C912.34415075 995.37352896 912.12593625 997.60412093 911.91197586 999.83563614 C903.81040834 1084.03590217 884.47532382 1167.18963959 763.97496414 1416.56805801 C763.51864609 1417.25357742 763.06232803 1417.93909683 762.59218216 1418.64538956 C744.07936772 1446.40981028 724.06240851 1473.08196171 702.42711258 1498.48895645 C699.59177591 1501.82476256 696.83014743 1505.20756506 694.09996414 1508.63055801 C689.01318433 1514.88839505 683.45618765 1520.6871088 677.91246414 1526.53680801 C675.16718722 1529.43650676 672.48815958 1532.38260865 669.84996414 1535.38055801 C664.22400932 1541.69365236 658.16381771 1547.59029174 652.15172195 1553.53216934 C648.19058228 1557.45842093 644.25931235 1561.41425798 640.33043289 1565.37274551 C638.89161956 1566.81894075 637.45231933 1568.26464946 636.01280594 1569.71014786 C635.03370647 1570.69427001 634.05550719 1571.67928863 633.07823563 1572.66522598 C627.88807958 1577.89998151 622.67241731 1583.05124278 617.06847 1587.84686661 C614.66844336 1589.90149945 612.35794676 1592.04940844 610.03746414 1594.19305801 C605.57473582 1598.26345857 600.98738414 1602.11982711 596.28746414 1605.91180801 C592.98641744 1608.61585691 589.76261297 1611.39950278 586.53746414 1614.19305801 C580.2701466 1619.59941934 573.83537364 1624.74919714 567.28941727 1629.81268692 C565.17262162 1631.45570831 563.06557527 1633.1107431 560.95933914 1634.76727676 C552.54429531 1641.37332845 544.06302962 1647.82844533 535.29332352 1653.95624161 C533.1027973 1655.49126111 530.92173009 1657.03926501 528.74058914 1658.58758926 C517.13461296 1666.80194836 505.35465573 1674.69857819 493.34996414 1682.31805801 C492.52448074 1682.84222305 491.69899734 1683.36638809 490.8484993 1683.90643692 C407.99954742 1736.29740026 317.05363808 1775.1190075 134.84996414 1815.69305801 C133.63625641 1815.87560135 133.63625641 1815.87560135 132.39802933 1816.06183243 C115.58573898 1818.56818908 98.74668495 1820.38738459 81.80040359 1821.69574356 C79.41619705 1821.88026911 77.03249741 1822.07053523 74.64879227 1822.26141739 C70.6522606 1822.57794362 66.65462887 1822.87418217 62.65547562 1823.15561295 C61.18768225 1823.25903286 59.72006548 1823.36501421 58.25270462 1823.47439957 C42.14652036 1824.64904178 25.98997793 1824.50539867 9.85069656 1824.50336075 C6.58892043 1824.50328028 3.32728713 1824.51010765 0.06554031 1824.52386856 C-29.63602013 1824.64701527 -59.28802494 1823.77926866 -88.83753586 1820.56805801 C-90.00708817 1820.44450439 -90.00708817 1820.44450439 -91.20026779 1820.31845474 C-175.34344782 1811.38410735 -258.44223392 1791.40752202 -344.65003586 1756.31805801 C-345.27831284 1756.05807022 -345.90658981 1755.79808243 -346.55390549 1755.53021622 C-400.58542338 1733.12328943 -452.23656953 1705.36541075 -500.90003586 1672.94305801 C-501.58555527 1672.48673996 -502.27107468 1672.03042191 -502.9773674 1671.56027603 C-537.48779126 1648.54934851 -570.69937231 1623.25773862 -601.40784836 1595.34540176 C-603.3621201 1593.57838602 -605.34063323 1591.84892272 -607.33753586 1590.13055801 C-618.55875748 1580.33461252 -629.18745865 1569.91178173 -639.65003586 1559.31805801 C-642.91985952 1556.04217912 -646.2002261 1552.77717518 -649.48597336 1549.51727676 C-651.33239935 1547.68010936 -653.17875131 1545.84286756 -655.02503586 1544.00555801 C-655.94542648 1543.0935463 -656.86581711 1542.18153458 -657.81409836 1541.24188614 C-662.42022785 1536.65220711 -666.89894836 1532.02372244 -671.13001633 1527.085392 C-673.35980159 1524.49281 -675.69429709 1522.00777757 -678.02503586 1519.50555801 C-682.27809802 1514.90279963 -686.29237368 1510.16059513 -690.22034836 1505.27508926 C-692.51038759 1502.48801579 -694.86363757 1499.77586568 -697.24793625 1497.07001114 C-703.60794188 1489.84439812 -709.54525288 1482.38589848 -715.33362961 1474.69696426 C-717.5616987 1471.73833732 -719.8241101 1468.81208283 -722.12269211 1465.90790176 C-729.40184661 1456.70479056 -736.21449462 1447.30155695 -742.76722336 1437.56805801 C-744.9845181 1434.27723142 -747.2751088 1431.06037667 -749.65003586 1427.88055801 C-764.86744136 1407.17595389 -777.98317489 1384.64665643 -790.65003586 1362.31805801 C-791.05254562 1361.61213516 -791.45505539 1360.90621231 -791.86976242 1360.17889786 C-799.87378919 1346.1113136 -807.34717473 1331.76007138 -814.65003586 1317.31805801 C-814.9529454 1316.71908707 -815.25585495 1316.12011612 -815.56794357 1315.50299454 C-831.43503078 1284.05229318 -845.13531848 1251.61112445 -856.65003586 1218.31805801 C-856.88853256 1217.62965836 -857.12702927 1216.9412587 -857.37275314 1216.23199844 C-881.18827022 1147.36046705 -897.88848446 1076.50379578 -904.96253586 1003.88055801 C-905.0379863 1003.11019211 -905.11343674 1002.3398262 -905.19117355 1001.54611588 C-905.74256994 995.80817619 -906.20547664 990.06514085 -906.65003586 984.31805801 C-906.73617142 983.25306076 -906.82230698 982.18806351 -906.9110527 981.09079361 C-908.64121539 959.31749393 -909.01419858 937.63846847 -908.96809387 915.80535126 C-908.96244755 913.08805914 -908.95963066 910.37077328 -908.95701218 907.65347672 C-908.91937452 880.77314425 -908.42535757 854.07527679 -905.65003586 827.31805801 C-905.47110515 825.53552798 -905.29240084 823.7529752 -905.11390305 821.97040176 C-896.76989215 739.73825461 -877.83814049 658.71144865 -822.50422287 523.13714981 C-821.67455922 521.37028341 -820.84996325 519.60104015 -820.02552414 517.83172989 C-813.56929969 503.99320808 -806.6843077 490.46964127 -799.2271843 477.14422989 C-797.58649323 474.20419278 -795.96491752 471.25415218 -794.34534836 468.30243301 C-777.35938992 437.47498398 -758.31308222 407.81117004 -737.65003586 379.31805801 C-737.09364426 378.55058243 -736.53725266 377.78310684 -735.9640007 376.99237442 C-728.40586093 366.596025 -720.69918143 356.33927199 -712.65003586 346.31805801 C-712.14117844 345.6830336 -711.63232101 345.04800919 -711.10804367 344.39374161 C-703.46937981 334.87675585 -695.65149508 325.53167165 -687.65003586 316.31805801 C-686.99390305 315.56008926 -686.33777023 314.80212051 -685.66175461 314.02118301 C-681.8082864 309.59190921 -677.88512884 305.22633746 -673.95081711 300.86883926 C-672.48593476 299.24478464 -671.02459754 297.61752017 -669.56800461 295.98602676 C-659.58553681 284.81825667 -649.35012183 273.92715079 -638.77503586 263.31805801 C-637.99080246 262.52923233 -637.20656906 261.74040665 -636.39857101 260.92767715 C-632.19177904 256.73203313 -627.89414524 252.71760959 -623.39173508 248.84149551 C-621.20665594 246.93024043 -619.17094985 244.90115397 -617.15003586 242.81805801 C-613.79746807 239.42537403 -610.35527904 236.22705117 -606.73597336 233.12274551 C-604.39978085 231.10154526 -602.12038735 229.02426962 -599.83753586 226.94305801 C-595.52093873 223.04759231 -591.07602455 219.34947584 -586.55628586 215.69305801 C-583.99708998 213.60167214 -581.47412056 211.47738437 -578.96180344 209.33050919 C-571.68372863 203.11356959 -564.22495943 197.1680872 -556.65003586 191.31805801 C-555.87095871 190.7130043 -555.09188156 190.10795059 -554.28919601 189.48456192 C-543.3580722 181.004647 -532.28196927 172.86562981 -520.80628586 165.13837051 C-517.48523867 162.90007976 -514.23874557 160.5839806 -511.02503586 158.19305801 C-483.92671196 138.28493355 -453.88609761 121.57794387 -424.29407883 105.73407364 C-422.56209583 104.80651119 -420.83187903 103.87564148 -419.10364914 102.94110489 C-403.92266724 94.7383586 -388.36629881 87.43327104 -372.65003586 80.31805801 C-371.58204758 79.83304825 -370.5140593 79.34803848 -369.41370773 78.84833145 C-344.96945226 67.78803199 -319.98094543 58.14410561 -294.65003586 49.31805801 C-293.01034836 48.74088028 -293.01034836 48.74088028 -291.33753586 48.15204239 C-229.71801263 26.56400988 -165.4616026 12.76551795 -100.65003586 5.31805801 C-99.64157608 5.20137772 -99.64157608 5.20137772 -98.61274338 5.08234024 C-65.76534394 1.30077693 -33.03574294 -0.07012065 0 0 Z M-78.48896408 19.09021378 C-80.66484339 19.31961919 -82.84156507 19.53879027 -85.0186882 19.7560463 C-94.92182013 20.7560681 -104.78859541 21.97022342 -114.65003586 23.31805801 C-115.42693771 23.42376114 -116.20383957 23.52946426 -117.00428391 23.63837051 C-197.53959182 34.64731802 -275.98221949 56.08802589 -350.65003586 88.31805801 C-351.70964523 88.77309708 -352.76925461 89.22813614 -353.86097336 89.69696426 C-383.22691467 102.37614128 -412.29752648 116.41502725 -439.85950851 132.6725502 C-442.97303521 134.50852308 -446.09865175 136.32303843 -449.22425461 138.13837051 C-463.99454339 146.75986604 -478.44692124 155.79071473 -492.65003586 165.31805801 C-493.49002121 165.88121719 -494.33000656 166.44437637 -495.19544601 167.02460098 C-516.32407374 181.23961813 -536.87740261 196.2656091 -556.65003586 212.31805801 C-557.87253395 213.30262943 -559.09520504 214.28698605 -560.31800461 215.27118301 C-572.23617424 224.88415058 -583.91223109 234.72392758 -595.19300461 245.07977676 C-597.37908655 247.07123138 -599.59586191 249.01478314 -601.83753586 250.94305801 C-605.19140362 253.85293106 -608.31648813 256.93688358 -611.40003586 260.13055801 C-613.25826682 261.93717145 -615.14612961 263.60954889 -617.11487961 265.29071426 C-622.5032176 269.97291674 -627.51519319 275.03349894 -632.55018234 280.0878334 C-634.20930906 281.75232079 -635.87371637 283.41139248 -637.53870773 285.07001114 C-642.55206359 290.08018326 -647.48573766 295.1164258 -652.09119797 300.5097084 C-654.84472728 303.7039749 -657.75812223 306.7495298 -660.65003586 309.81805801 C-665.4161464 314.90398736 -670.13389407 320.00731667 -674.65003586 325.31805801 C-675.46601242 326.26680801 -676.28198898 327.21555801 -677.12269211 328.19305801 C-682.36266049 334.31088757 -687.44582036 340.52706335 -692.39002609 346.88617325 C-695.31903272 350.64718456 -698.30637814 354.35180076 -701.33778 358.0307045 C-709.1492942 367.52542101 -716.47722749 377.3340682 -723.65003586 387.31805801 C-724.21303391 388.10132462 -724.77603195 388.88459122 -725.35609055 389.69159317 C-752.25469211 427.27668474 -776.10229332 466.81799592 -796.98060226 508.03046036 C-798.47510891 510.97357625 -799.9866373 513.90699914 -801.50550461 516.83758926 C-814.55989412 542.21675309 -825.5467772 568.64636467 -835.65003586 595.31805801 C-836.08735031 596.45468887 -836.52466476 597.59131973 -836.97523117 598.76239395 C-865.47580028 672.95534154 -882.10982063 751.32311425 -889.65003586 830.31805801 C-889.81995041 832.08318741 -889.81995041 832.08318741 -889.99329758 833.88397598 C-892.46687416 860.08513082 -892.88894879 886.2705407 -892.90003586 912.56805801 C-892.90077229 913.37059509 -892.90150871 914.17313217 -892.90226746 914.99998856 C-892.92128527 940.50737001 -892.34093383 965.81533783 -889.85248947 991.21966934 C-889.65649966 993.25106211 -889.47264901 995.28311331 -889.29407883 997.31610489 C-882.80417976 1070.81161402 -866.02245539 1142.76879682 -841.65003586 1212.31805801 C-841.41478195 1212.99010269 -841.17952805 1213.66214737 -840.93714523 1214.35455704 C-834.52311576 1232.63387475 -827.43348014 1250.5766041 -819.65003586 1268.31805801 C-819.2770134 1269.17447891 -818.90399094 1270.03089981 -818.51966476 1270.91327286 C-804.37944867 1303.29559506 -788.52887861 1335.12750203 -770.37366867 1365.44012833 C-768.69345042 1368.24556923 -767.02701749 1371.05887157 -765.36097336 1373.87274551 C-749.6216751 1400.26262698 -732.27483446 1425.88061802 -713.65003586 1450.31805801 C-712.66538264 1451.62383785 -711.68102693 1452.92984206 -710.69691086 1454.23602676 C-702.94562975 1464.48867943 -694.89962571 1474.46308966 -686.65003586 1484.31805801 C-686.14166183 1484.92697891 -685.63328781 1485.53589981 -685.10950851 1486.16327286 C-679.75353795 1492.57159475 -674.30596171 1498.88163257 -668.68909836 1505.06415176 C-666.85917339 1507.08688492 -665.06121858 1509.13175236 -663.27503586 1511.19305801 C-656.34024564 1519.1391718 -649.20334362 1526.83984133 -641.69300461 1534.24383926 C-639.77865819 1536.18746823 -637.98640011 1538.18398227 -636.21253586 1540.25555801 C-630.25595648 1547.17732386 -623.71542427 1553.48036247 -616.77894211 1559.40790176 C-614.13524503 1561.77995291 -611.6436239 1564.29087055 -609.15003586 1566.81805801 C-605.46856866 1570.54404645 -601.71708439 1574.11662047 -597.73206711 1577.51727676 C-595.21850007 1579.69130003 -592.78227357 1581.94196289 -590.33753586 1584.19305801 C-585.85206034 1588.28366361 -581.24423042 1592.16623644 -576.52112961 1595.97821426 C-573.97250559 1598.05525615 -571.46298022 1600.16754271 -568.9640007 1602.30340958 C-561.68599295 1608.52172542 -554.22743939 1614.46977439 -546.65003586 1620.31805801 C-545.87627609 1620.91779434 -545.10251633 1621.51753067 -544.3053093 1622.13544083 C-480.09249548 1671.83971081 -408.89519605 1712.80115715 -333.65003586 1743.31805801 C-333.01039902 1743.57782425 -332.37076218 1743.83759048 -331.7117424 1744.10522842 C-301.9738339 1756.15492137 -271.59503953 1766.81729998 -240.65003586 1775.31805801 C-238.78137792 1775.84219776 -236.91288964 1776.36694271 -235.04456711 1776.89227676 C-190.15619418 1789.42810435 -144.34041876 1797.61765957 -98.07142258 1802.9201088 C-95.30439675 1803.24194782 -92.54129448 1803.58000356 -89.77894211 1803.93915176 C-77.68436176 1805.48543607 -65.53049695 1806.3048029 -53.36512375 1807.08099747 C-50.86100537 1807.24078579 -48.35755897 1807.41142897 -45.85486984 1807.59222794 C-30.78456308 1808.62080979 -15.6853153 1808.51811979 -0.58753586 1808.50555801 C0.48872244 1808.5051577 0.48872244 1808.5051577 1.58672333 1808.5047493 C60.13954137 1808.47742966 118.91232516 1804.34054885 176.34996414 1792.31805801 C176.98017471 1792.18673477 177.61038528 1792.05541153 178.25969315 1791.9201088 C203.87195075 1786.57175585 229.19077371 1780.50500505 254.34996414 1773.31805801 C255.96644852 1772.8588295 255.96644852 1772.8588295 257.61558914 1772.39032364 C285.70320767 1764.33578597 313.32434552 1754.3935383 340.34996414 1743.31805801 C341.41940262 1742.88171036 342.48884109 1742.4453627 343.5906868 1741.99579239 C376.92395461 1728.33254309 409.50205912 1712.76774517 440.73228836 1694.80829239 C443.84375592 1693.03694395 446.98471303 1691.32495424 450.13145828 1689.61737442 C481.96736284 1672.27724296 512.53409303 1651.27984272 541.34996414 1629.31805801 C542.65574398 1628.3334048 543.96174818 1627.34904908 545.26793289 1626.36493301 C555.52058556 1618.61365191 565.49499578 1610.56764787 575.34996414 1602.31805801 C575.95888504 1601.80968399 576.56780594 1601.30130997 577.19517899 1600.77753067 C583.60350088 1595.42156011 589.91353869 1589.97398386 596.09605789 1584.35712051 C598.11879104 1582.52719555 600.16365849 1580.72924074 602.22496414 1578.94305801 C609.89042255 1572.25517831 617.36732879 1565.38665041 624.50230789 1558.13446426 C626.32836106 1556.33929571 628.21610932 1554.66880668 630.16246414 1553.00555801 C637.4789368 1546.69726073 644.21169499 1539.75910452 650.47496414 1532.41180801 C652.83342883 1529.77818911 655.33462036 1527.30001041 657.84996414 1524.81805801 C661.57594834 1521.13658751 665.14852658 1517.38510657 668.54918289 1513.40008926 C670.72320616 1510.88652223 672.97386902 1508.45029573 675.22496414 1506.00555801 C679.31556974 1501.52008249 683.19814257 1496.91225258 687.01012039 1492.18915176 C689.08767193 1489.63990238 691.20057456 1487.12982025 693.33678055 1484.63006973 C699.08752561 1477.90030229 704.61090147 1471.01733405 710.03111649 1464.01922989 C711.28511848 1462.40170196 712.54587712 1460.78941885 713.80699539 1459.17743301 C720.89430665 1450.06354002 727.65530837 1440.72308544 734.34996414 1431.31805801 C734.93358719 1430.49821426 735.51721024 1429.67837051 736.11851883 1428.83368301 C744.15776848 1417.51104382 751.9438801 1406.06475131 759.34996414 1394.31805801 C759.84286942 1393.53946426 760.33577469 1392.76087051 760.84361649 1391.95868301 C808.29524235 1316.82569582 843.7626373 1236.09298709 867.70866776 1150.60071182 C868.30637063 1148.47322635 868.91041271 1146.34768266 869.51744461 1144.22284317 C875.60741581 1122.81558814 880.21481968 1101.17525016 884.34996414 1079.31805801 C884.50743118 1078.48665298 884.66489822 1077.65524796 884.82713699 1076.79864883 C891.64038834 1040.63303157 896.32284984 1004.0762226 898.34996414 967.31805801 C898.3912645 966.6521666 898.43256485 965.98627518 898.47511673 965.30020523 C899.5645877 947.63001907 899.55107237 929.95151126 899.53746414 912.25555801 C899.53719727 911.47840816 899.53693039 910.70125832 899.53665543 909.90055847 C899.52663575 886.65479773 899.39824869 863.48927698 897.34996414 840.31805801 C897.28680008 839.57982803 897.22363602 838.84159805 897.15855789 838.08099747 C890.07217935 755.29368542 872.10910048 673.37047902 806.34996414 513.31805801 C805.88831863 512.36608536 805.42667313 511.4141127 804.95103836 510.43329239 C797.96651623 496.06657083 790.33981797 482.14771023 782.34996414 468.31805801 C781.20144607 466.31419794 780.05300922 464.31029132 778.90465164 462.30633926 C771.09066327 448.73231266 762.89124172 435.4457911 754.34996414 422.31805801 C753.2787532 420.66676895 753.2787532 420.66676895 752.18590164 418.98212051 C734.8358967 392.62487897 715.78366989 367.5555897 695.83092117 343.13544083 C694.50717344 341.5109802 693.19167605 339.87980456 691.87730789 338.24774551 C687.32661661 332.6135563 682.59117172 327.20458351 677.68980789 321.87274551 C675.69161566 319.69107987 673.72847525 317.48794493 671.78746414 315.25555801 C659.16778025 300.77060906 645.97748596 286.85341637 632.41246414 273.25555801 C631.67718491 272.51639648 631.67718491 272.51639648 630.92705154 271.7623024 C625.83231892 266.6463266 620.69566735 261.63023336 615.21104813 256.92963028 C612.00412007 254.1526485 608.93667514 251.22710789 605.84996414 248.31805801 C600.76412801 243.55203482 595.66214463 238.83240151 590.34996414 234.31805801 C589.42441727 233.52528458 588.49887039 232.73251114 587.54527664 231.91571426 C568.1585606 215.36437746 548.17397933 199.57832355 527.41051102 184.78924942 C525.51466589 183.43565194 523.6261239 182.07268283 521.74058914 180.70477676 C498.52565697 163.90082929 474.17918866 148.60834944 449.34996414 134.31805801 C448.38687332 133.76102188 447.4237825 133.20398575 446.43150711 132.63006973 C404.48830373 108.48551639 360.56894835 88.45426719 315.34996414 71.31805801 C314.18110672 70.87510391 313.0122493 70.43214981 311.80797195 69.97577286 C224.33138579 37.15629264 128.31598913 17.55148666 6.70686722 16.00020218 C3.99528743 16.00564264 1.28371638 16.00800972 -1.42786789 16.01007462 C-27.1935461 16.04064477 -52.84172272 16.37870957 -78.48896408 19.09021378 Z " fill="#A1A1A1" transform="translate(1020.6500358581543,111.68194198608398)"/>
</svg>
