<?xml version="1.0" encoding="UTF-8"?>
<svg version="1.1" xmlns="http://www.w3.org/2000/svg" width="2094" height="2094">
<path d="M0 0 C40.26 0 80.52 0 122 0 C120.00913246 3.98173509 117.739818 6.53049846 114.63232422 9.59472656 C114.08583221 10.14151062 113.53934021 10.68829468 112.97628784 11.25164795 C111.17378907 13.05275649 109.36431604 14.84668247 107.5546875 16.640625 C106.30157633 17.89000495 105.04890681 19.13982801 103.79666138 20.39007568 C100.50324045 23.67586872 97.20385709 26.9556107 93.90319824 30.23413086 C90.53471006 33.58214253 87.1718924 36.93583907 83.80859375 40.2890625 C77.21126824 46.86495296 70.60763017 53.43446516 64 60 C65.41702854 63.22656734 67.11831151 65.35381455 69.62353516 67.81884766 C70.7344603 68.91986313 70.7344603 68.91986313 71.86782837 70.04312134 C72.66683563 70.82553192 73.4658429 71.6079425 74.2890625 72.4140625 C75.10748627 73.22491302 75.92591003 74.03576355 76.76913452 74.8711853 C79.383021 77.46063274 82.00321566 80.0435508 84.625 82.625 C88.08116349 86.02820513 91.53083526 89.43779484 94.9765625 92.8515625 C95.77961823 93.63802155 96.58267395 94.42448059 97.4100647 95.23477173 C98.51153336 96.32633072 98.51153336 96.32633072 99.63525391 97.43994141 C100.28652252 98.08073639 100.93779114 98.72153137 101.60879517 99.38174438 C103 101 103 101 103 103 C103.66 103 104.32 103 105 103 C105 103.66 105 104.32 105 105 C105.66 105 106.32 105 107 105 C107 105.66 107 106.32 107 107 C107.66 107 108.32 107 109 107 C109 107.66 109 108.32 109 109 C109.66 109 110.32 109 111 109 C111 109.66 111 110.32 111 111 C111.66 111 112.32 111 113 111 C113 111.66 113 112.32 113 113 C113.66 113 114.32 113 115 113 C116.7265625 114.71484375 116.7265625 114.71484375 118.625 116.9375 C119.25664062 117.66839844 119.88828125 118.39929688 120.5390625 119.15234375 C122 121 122 121 122 122 C81.74 122 41.48 122 0 122 C0 81.74 0 41.48 0 0 Z " fill="#5B77B7" transform="translate(347,339)"/>
<path d="M0 0 C38.61 0 77.22 0 117 0 C114.89935393 26.25807587 112.71935308 52.50089545 110.34057617 78.73413086 C109.99971219 82.49481398 109.66222983 86.25579326 109.32541561 90.01684093 C109.06213654 92.95010251 108.79644809 95.88314223 108.53009224 98.81612587 C108.40440864 100.20466343 108.27961939 101.59328227 108.15577507 102.98198509 C107.98392978 104.90643299 107.80833029 106.83054453 107.63256836 108.75463867 C107.53423203 109.84362961 107.43589569 110.93262054 107.33457947 112.05461121 C107.02840639 114.74993123 106.57813339 117.35122297 106 120 C104.99211426 120.28721924 103.98422852 120.57443848 102.94580078 120.87036133 C99.162237 121.94876964 95.37893353 123.02808881 91.59570312 124.10766602 C89.96654088 124.57242801 88.33731062 125.03695169 86.70800781 125.5012207 C73.83012809 129.16904946 73.83012809 129.16904946 61 133 C62.98 133.33 64.96 133.66 67 134 C67 134.66 67 135.32 67 136 C61.06 136.33 55.12 136.66 49 137 C48.67 136.34 48.34 135.68 48 135 C50.97 134.01 50.97 134.01 54 133 C45.42116507 129.50783029 36.45339557 127.27140604 27.53417969 124.83129883 C25.39162789 124.24378657 23.25047857 123.65135822 21.109375 123.05859375 C19.84061523 122.71111084 18.57185547 122.36362793 17.26464844 122.00561523 C16.18731445 121.67376221 15.10998047 121.34190918 14 121 C12.82377075 120.68180298 12.82377075 120.68180298 11.6237793 120.35717773 C9.32279197 118.43397994 9.32905078 116.42378873 9.06463623 113.54512024 C9.01365784 112.77999619 8.96267944 112.01487213 8.91015625 111.2265625 C8.84056702 110.41628098 8.77097778 109.60599945 8.69927979 108.77116394 C8.4697453 106.05690431 8.26644039 103.341293 8.0625 100.625 C7.9053318 98.71165961 7.74602757 96.79849363 7.5847168 94.88549805 C7.32764489 91.8362471 7.07188885 88.78695245 6.82270813 85.73704529 C6.18354551 77.95567467 5.44996273 70.18659815 4.671875 62.41796875 C4.55891586 61.2834729 4.44595673 60.14897705 4.32957458 58.98010254 C3.88439157 54.51454877 3.4385622 50.04908561 2.98342896 45.58453369 C2.66610455 42.45930607 2.35774757 39.3332912 2.05078125 36.20703125 C1.95927795 35.32983932 1.86777466 34.4526474 1.77349854 33.5488739 C0.6915395 22.36702827 0.46967526 11.27220623 0 0 Z M43 27 C42.67 46.8 42.34 66.6 42 87 C35.73 85.35 29.46 83.7 23 82 C22.34 82 21.68 82 21 82 C21 85.63 21 89.26 21 93 C27.08619399 95.86662319 33.30343677 97.5367983 39.8125 99.1875 C40.86115234 99.46013672 41.90980469 99.73277344 42.99023438 100.01367188 C47.93371523 101.43327757 47.93371523 101.43327757 53 102 C53 77.25 53 52.5 53 27 C49.7 27 46.4 27 43 27 Z M64 27 C64 42.84 64 58.68 64 75 C75.02177416 73.64937198 75.02177416 73.64937198 86 72 C86 76.29 86 80.58 86 85 C84.411875 85.268125 82.82375 85.53625 81.1875 85.8125 C75.34304107 86.86753869 69.70870766 88.36894067 64 90 C64 93.96 64 97.92 64 102 C73.73202452 99.89085937 83.43259496 97.78171248 93 95 C94.89504327 83.02259062 95.56957989 71.10950234 96 59 C93.66585761 59.11549142 91.33317081 59.24218193 89 59.375 C87.700625 59.44460938 86.40125 59.51421875 85.0625 59.5859375 C80.29298538 59.9742903 80.29298538 59.9742903 73 62 C73 54.41 73 46.82 73 39 C81.25 39 89.5 39 98 39 C98 35.04 98 31.08 98 27 C86.78 27 75.56 27 64 27 Z " fill="#D6BC39" transform="translate(989,1884)"/>
<path d="M0 0 C4.7315551 0.60772267 8.72019902 1.9357083 13.125 3.75 C14.92324219 4.48476563 14.92324219 4.48476563 16.7578125 5.234375 C19.07443158 6.19596906 21.38895843 7.16249632 23.70336914 8.12939453 C32.36295005 11.74498172 41.04809307 15.29512478 49.74682617 18.81542969 C54.9606878 20.92916705 60.16500306 23.05136022 65.3203125 25.3046875 C66.09221924 25.63807129 66.86412598 25.97145508 67.65942383 26.31494141 C69.04497708 26.91667277 70.42555927 27.53005337 71.79956055 28.15771484 C76.92200435 30.36612055 80.26652753 30.04238803 85.38671875 28.08984375 C92.12098444 24.71699421 97.9963101 20.5252438 104 16 C107 14 107 14 109.671875 14.09375 C113.9700497 15.26414499 117.43428333 17.24271706 121.25 19.5 C122.6718143 20.32302154 124.09368657 21.14594293 125.515625 21.96875 C126.13727539 22.33419922 126.75892578 22.69964844 127.39941406 23.07617188 C134.32469752 27.07331535 143.74755123 24.55951125 151.37304688 23.62304688 C152.59024414 23.48286133 152.59024414 23.48286133 153.83203125 23.33984375 C154.56139893 23.25081787 155.2907666 23.16179199 156.04223633 23.07006836 C158 23 158 23 161 24 C155.55950846 26.41428766 149.79726396 27.64444495 144.03710938 29.05664062 C133.49901511 31.73073411 127.67215387 36.39643317 121 45 C118.38233318 49.49751089 117.65205175 53.10855635 117.125 58.25 C116.32603995 63.31173065 114.94828571 66.78450537 110.85375977 70.11279297 C108.57962637 71.75016901 106.2625763 73.29464852 103.890625 74.78662109 C101.21353866 76.50474082 98.65743361 78.37678925 96.08520508 80.24682617 C93.40843622 82.19078091 90.70421999 84.09447767 88 86 C91.39384206 94.19445804 102.58138167 98.08962548 110 102 C109.33504438 106.99766643 108.01097515 109.92061431 105 114 C100.59885603 113.49701212 98.28804981 111.91227269 95 109 C96.65 112.3 98.3 115.6 100 119 C91.32352941 127.92436975 91.32352941 127.92436975 87.8125 128.125 C85.02592369 126.39540091 84.78317473 124.06743434 84 121 C83.67 123.97 83.34 126.94 83 130 C79.50702584 128.25351292 78.19740708 127.43293687 75.8125 124.625 C75.30332031 124.03976562 74.79414062 123.45453125 74.26953125 122.8515625 C71.94707544 119.46435003 71.87838513 116.26981134 71.9375 112.25 C71.94652344 111.45078125 71.95554687 110.6515625 71.96484375 109.828125 C71.97644531 109.22484375 71.98804688 108.6215625 72 108 C71.34 108 70.68 108 70 108 C69.87625 108.7425 69.7525 109.485 69.625 110.25 C69.04513299 112.80141485 68.26291261 114.7267573 67 117 C64.63118468 113.44677702 64.75429692 111.92519424 64.76953125 107.71484375 C64.77146484 106.46123047 64.77339844 105.20761719 64.77539062 103.91601562 C64.78763672 102.60310547 64.79988281 101.29019531 64.8125 99.9375 C64.8134668 98.00874023 64.8134668 98.00874023 64.81445312 96.04101562 C64.90102154 77.19795692 64.90102154 77.19795692 67 73 C66.09950928 72.90130615 65.19901855 72.8026123 64.27124023 72.70092773 C53.3988619 71.43299404 42.67263681 69.61268566 31.91577148 67.59594727 C29.04361547 67.05896935 26.16942409 66.53402135 23.29492188 66.00976562 C21.43736628 65.66478173 19.5799395 65.31910339 17.72265625 64.97265625 C16.87872818 64.81942398 16.03480011 64.66619171 15.16529846 64.50831604 C9.59535287 63.45101947 4.33219849 61.92352823 -1 60 C1.5846175 58.63604825 4.0288721 57.60872595 6.85058594 56.85498047 C7.96128448 56.55489578 7.96128448 56.55489578 9.09442139 56.24874878 C9.88310608 56.04033356 10.67179077 55.83191833 11.484375 55.6171875 C12.70776581 55.28849167 12.70776581 55.28849167 13.95587158 54.95315552 C16.55285284 54.25639914 19.15138244 53.56562575 21.75 52.875 C23.51442844 52.40273783 25.27875265 51.93008604 27.04296875 51.45703125 C31.3607841 50.30016834 35.67999754 49.14866752 40 48 C39.06094349 46.89894864 38.12108818 45.79857852 37.1809082 44.69848633 C36.65761429 44.08564285 36.13432037 43.47279938 35.59516907 42.84138489 C33.18919557 40.06404715 30.69252429 37.37527296 28.1875 34.6875 C27.13241861 33.54854184 26.07773454 32.4092155 25.0234375 31.26953125 C24.51006836 30.71475098 23.99669922 30.1599707 23.46777344 29.58837891 C16.70355844 22.26835516 10.24263324 14.77046699 4 7 C3.25363281 6.10925781 2.50726562 5.21851563 1.73828125 4.30078125 C0 2 0 2 0 0 Z " fill="#1F94D2" transform="translate(1608,337)"/>
<path d="M0 0 C3.45372834 3.37594166 4.90530638 6.30485134 5.12255859 11.11499023 C5.14228364 12.86952136 5.14470516 14.62430455 5.1328125 16.37890625 C5.13568268 17.3120314 5.13855286 18.24515656 5.14151001 19.20655823 C5.14354733 21.17587899 5.1380407 23.14522014 5.12548828 25.11450195 C5.10944812 28.11911595 5.125339 31.12238114 5.14453125 34.12695312 C5.14254841 36.04427379 5.13870388 37.96159361 5.1328125 39.87890625 C5.13888519 40.77282578 5.14495789 41.6667453 5.1512146 42.5877533 C5.09388484 47.70631209 4.58910804 51.27136285 1.734375 55.6953125 C-5.04249448 62.32158488 -11.16562129 62.97868255 -20.1953125 62.96875 C-22.144537 62.9890387 -24.09375571 63.00988947 -26.04296875 63.03125 C-29.0929861 63.05382455 -32.14277408 63.07031663 -35.19287109 63.07617188 C-38.15243208 63.08573581 -41.11098041 63.11955565 -44.0703125 63.15625 C-44.97264618 63.15120453 -45.87497986 63.14615906 -46.80465698 63.14096069 C-52.65943645 63.23115644 -57.46333929 64.16538654 -62.265625 67.6953125 C-66.14779106 72.52436127 -67.32420376 77.63915782 -67.58203125 83.6796875 C-67.64487305 85.08154297 -67.64487305 85.08154297 -67.70898438 86.51171875 C-67.74830078 87.47980469 -67.78761719 88.44789062 -67.828125 89.4453125 C-67.89290039 90.92064453 -67.89290039 90.92064453 -67.95898438 92.42578125 C-68.06484552 94.84882525 -68.16692671 97.2719679 -68.265625 99.6953125 C-70.80794842 99.77683594 -73.34761702 99.83604966 -75.890625 99.8828125 C-76.60347656 99.90794922 -77.31632812 99.93308594 -78.05078125 99.95898438 C-83.83422803 100.03857309 -87.78110672 98.82765634 -92.27734375 94.96875 C-102.28195644 83.63485311 -102.09085082 69.10008765 -101.265625 54.6953125 C-100.16994574 46.06915972 -97.46754446 39.00511534 -90.6484375 33.35546875 C-86.46295488 30.42979558 -83.07770246 29.56986814 -78.05981445 29.58178711 C-76.99894119 29.58186264 -75.93806793 29.58193817 -74.845047 29.58201599 C-73.70122055 29.58717728 -72.5573941 29.59233856 -71.37890625 29.59765625 C-69.62068794 29.59977867 -69.62068794 29.59977867 -67.82695007 29.60194397 C-64.07731593 29.60754862 -60.32774115 29.62010194 -56.578125 29.6328125 C-54.03841232 29.6378269 -51.4986987 29.64238991 -48.95898438 29.64648438 C-42.72784427 29.65751956 -36.49673888 29.67426225 -30.265625 29.6953125 C-30.265625 28.3753125 -30.265625 27.0553125 -30.265625 25.6953125 C-41.485625 25.6953125 -52.705625 25.6953125 -64.265625 25.6953125 C-64.36875 22.3540625 -64.471875 19.0128125 -64.578125 15.5703125 C-64.62364502 14.52858887 -64.66916504 13.48686523 -64.71606445 12.41357422 C-64.78198368 7.99145709 -64.81986607 4.70026679 -61.96875 1.15625 C-47.61700036 -11.90964924 -15.29596051 -10.84946036 0 0 Z M-51.265625 4.6953125 C-52.585625 6.3453125 -53.905625 7.9953125 -55.265625 9.6953125 C-54.62640535 12.17158349 -54.62640535 12.17158349 -53.265625 14.6953125 C-50.74189599 16.05609285 -50.74189599 16.05609285 -48.265625 16.6953125 C-46.615625 15.0453125 -44.965625 13.3953125 -43.265625 11.6953125 C-43.925625 9.7153125 -44.585625 7.7353125 -45.265625 5.6953125 C-48.235625 5.2003125 -48.235625 5.2003125 -51.265625 4.6953125 Z " fill="#2F72A4" transform="translate(438.265625,1614.3046875)"/>
<path d="M0 0 C17.95435678 -1.11312889 17.95435678 -1.11312889 24.265625 4.01171875 C31.64271972 12.46879355 32.23714293 21.71098347 32.29516602 32.40380859 C32.30663894 33.87395895 32.32701612 35.3440692 32.35668945 36.81396484 C32.5877884 48.27079185 31.31088393 56.44074502 23.85546875 65.4921875 C17.41313124 70.7274344 10.65404217 70.40230857 2.72265625 70.29296875 C1.5561705 70.28872391 0.38968475 70.28447906 -0.81214905 70.28010559 C-4.52083874 70.26337522 -8.22897582 70.22573221 -11.9375 70.1875 C-14.4589765 70.17244593 -16.98046156 70.15875879 -19.50195312 70.14648438 C-25.66815582 70.1134901 -31.83403842 70.06334646 -38 70 C-38 71.32 -38 72.64 -38 74 C-26.78 74 -15.56 74 -4 74 C-3.87625 77.320625 -3.7525 80.64125 -3.625 84.0625 C-3.54306396 85.61142944 -3.54306396 85.61142944 -3.45947266 87.19165039 C-3.3784445 91.70788078 -3.55697352 95.20716239 -6.2734375 98.93359375 C-13.51733534 106.0088562 -23.90419667 106.50903064 -33.48828125 106.546875 C-34.47948975 106.53430664 -34.47948975 106.53430664 -35.49072266 106.52148438 C-37.49894847 106.50001124 -39.50359968 106.52141238 -41.51171875 106.546875 C-51.12377614 106.50892018 -59.81837504 105.27817089 -68.0625 100.0625 C-73.11357437 94.68554986 -73.44656519 90.41699685 -73.3984375 83.31640625 C-73.40130768 82.3832811 -73.40417786 81.45015594 -73.40713501 80.48875427 C-73.40917233 78.51943351 -73.4036657 76.55009236 -73.39111328 74.58081055 C-73.37507312 71.57619655 -73.390964 68.57293136 -73.41015625 65.56835938 C-73.40817341 63.65103871 -73.40432888 61.73371889 -73.3984375 59.81640625 C-73.40451019 58.92248672 -73.41058289 58.0285672 -73.4168396 57.1075592 C-73.35950984 51.98900041 -72.85473304 48.42394965 -70 44 C-63.22313052 37.37372762 -57.10000371 36.71662995 -48.0703125 36.7265625 C-46.121088 36.7062738 -44.17186929 36.68542303 -42.22265625 36.6640625 C-39.1726389 36.64148795 -36.12285092 36.62499587 -33.07275391 36.61914062 C-30.11319292 36.60957669 -27.15464459 36.57575685 -24.1953125 36.5390625 C-23.29297882 36.54410797 -22.39064514 36.54915344 -21.46096802 36.55435181 C-15.60618855 36.46415606 -10.80228571 35.52992596 -6 32 C-2.11783394 27.17095123 -0.94142124 22.05615468 -0.68359375 16.015625 C-0.64169922 15.08105469 -0.59980469 14.14648438 -0.55664062 13.18359375 C-0.51732422 12.21550781 -0.47800781 11.24742188 -0.4375 10.25 C-0.37272461 8.77466797 -0.37272461 8.77466797 -0.30664062 7.26953125 C-0.20077948 4.84648725 -0.09869829 2.4233446 0 0 Z M-24 86 C-25.24774386 87.82423512 -25.24774386 87.82423512 -25 90 C-22.97958785 92.93714781 -22.97958785 92.93714781 -20 95 C-17.239835 94.95020416 -17.239835 94.95020416 -15 94 C-14.34 92.02 -13.68 90.04 -13 88 C-14.62339805 86.29115995 -16.29319053 84.62553283 -18 83 C-20.84613268 83 -21.91932384 84.1206796 -24 86 Z " fill="#FCD142" transform="translate(447,1643)"/>
<path d="M0 0 C2.86464878 2.16207799 5.49048943 4.43593485 8 7 C8.46148437 6.63648438 8.92296875 6.27296875 9.3984375 5.8984375 C29.14043825 -9.31772908 29.14043825 -9.31772908 41 -8 C45.67489656 -6.25837187 48.32171662 -4.20873103 51 0 C52.91222252 5.44300483 53.307603 10.24920404 53.25 15.9375 C53.26160156 17.07735352 53.26160156 17.07735352 53.2734375 18.24023438 C53.25558426 23.46676955 52.44036761 27.9758606 51 33 C51.845625 33.09796875 52.69125 33.1959375 53.5625 33.296875 C57.44706558 34.09144523 60.46255267 35.46576122 64 37.25 C65.7634375 38.12398437 65.7634375 38.12398437 67.5625 39.015625 C73.21684831 42.27972607 78.11274634 46.00339625 81 52 C81.90656674 56.72865214 82.11851802 60.97485713 79.7421875 65.27734375 C72.47314028 74.08472422 62.24222446 78.53584652 52 83 C52.15855469 83.78761719 52.31710938 84.57523438 52.48046875 85.38671875 C53.12674128 89.88147131 53.26169146 94.2769911 53.3125 98.8125 C53.35600586 100.08963867 53.35600586 100.08963867 53.40039062 101.39257812 C53.46238697 107.65420859 52.24959855 112.60264978 49 118 C45.5990396 121.31998515 42.88284878 122.26036989 38.25 122.5 C29.25047363 122.08235731 22.41052226 117.94268512 15.32421875 112.68359375 C12.95747724 110.9691978 10.52432747 109.46991812 8 108 C7.39414063 108.51949219 6.78828125 109.03898437 6.1640625 109.57421875 C-2.81234766 117.04535397 -11.35594145 122.46610852 -23.2734375 122.26171875 C-27.32188403 121.87311428 -29.15322822 120.91620524 -32 118 C-37.38759318 109.96083274 -36.97664876 99.30517689 -36 90 C-35.45092624 87.28191438 -34.75718235 84.67133932 -34 82 C-34.59425781 81.85304688 -35.18851563 81.70609375 -35.80078125 81.5546875 C-46.56219113 78.64257969 -55.94454226 73.84761947 -63 65 C-64.83782574 59.48652279 -64.689834 54.69584192 -62.5 49.3125 C-56.96238278 40.92862498 -46.14520683 36.29287316 -37 33 C-36.01 33 -35.02 33 -34 33 C-34.32226562 32.04867187 -34.64453125 31.09734375 -34.9765625 30.1171875 C-36.29895529 25.46189676 -36.36773975 20.93854244 -36.375 16.125 C-36.39949219 15.27808594 -36.42398438 14.43117188 -36.44921875 13.55859375 C-36.47786224 7.32386086 -35.20588087 2.38276599 -32 -3 C-22.28818708 -12.71181292 -9.93404255 -5.92781672 0 0 Z M-25.375 0.9375 C-29.52219544 6.20124806 -29.54687504 13.57421828 -29 20 C-28.45419387 23.36423609 -27.77588527 26.68170498 -27 30 C-15.30737998 29.91195173 -15.30737998 29.91195173 -5.6484375 24.52734375 C-2.56035163 20.80693553 0.31811032 17.02283452 3 13 C-9.57742795 1.80598882 -9.57742795 1.80598882 -25.375 0.9375 Z M14 13 C15.41888631 14.93713202 16.85245201 16.85824015 18.31640625 18.76171875 C20 21 20 21 21.27734375 23.01953125 C23.57146965 26.3317191 25.14442273 27.75693828 29.09375 28.87890625 C34.08191235 29.68218014 38.94838325 30.08466397 44 30 C45.85194631 21.36778745 47.86591854 11.36325438 43.51171875 3.21484375 C42.18315062 1.121348 42.18315062 1.121348 41 0 C30.55345058 -1.6250188 21.01649352 6.02477998 14 13 Z M8 19 C6.9970458 20.14324839 5.99770973 21.28967191 5 22.4375 C4.443125 23.07558594 3.88625 23.71367188 3.3125 24.37109375 C1.89542935 25.78113179 1.89542935 25.78113179 2 27 C6.29 27 10.58 27 15 27 C12.11091314 22.14659219 12.11091314 22.14659219 8 19 Z M-6 36 C-8.04214343 38.78963483 -9.64371646 41.75623296 -11.25 44.8125 C-11.91902344 46.02389648 -11.91902344 46.02389648 -12.6015625 47.25976562 C-14.7072908 51.15536298 -16.50174893 54.53929727 -17 59 C-15.87647222 61.6447902 -14.73413736 63.96626555 -13.3125 66.4375 C-12.95994141 67.08009766 -12.60738281 67.72269531 -12.24414062 68.38476562 C-11.53564362 69.66057833 -10.80985721 70.92695142 -10.06665039 72.18286133 C-9.06033258 73.89721781 -8.12897616 75.6549453 -7.203125 77.4140625 C-5.16115138 80.32514798 -5.16115138 80.32514798 -1.49609375 80.83984375 C-0.14448343 80.90656523 1.20924385 80.9375 2.5625 80.9375 C3.6299646 80.95490234 3.6299646 80.95490234 4.71899414 80.97265625 C6.150146 80.98815784 7.58150046 80.99080794 9.01269531 80.97998047 C11 81 11 81 14.1796875 81.34765625 C17.38378241 81.52465299 19.11103491 81.43763665 22 80 C25.46548015 76.15283005 27.83288355 71.49207711 30.08203125 66.86181641 C30.9185825 65.16513028 31.86072607 63.52155458 32.8125 61.88671875 C34.32384333 58.21276244 34.20453755 56.78898595 33 53 C31.40581716 49.78008814 29.57959676 46.73982169 27.6875 43.6875 C27.20087891 42.86443359 26.71425781 42.04136719 26.21289062 41.19335938 C25.73400391 40.41154297 25.25511719 39.62972656 24.76171875 38.82421875 C24.32819092 38.11354248 23.89466309 37.40286621 23.44799805 36.6706543 C21.66579643 34.6144065 20.66943664 34.3450039 18 34 C14.85667296 33.78450517 11.71252974 33.8148882 8.5625 33.8125 C7.71623047 33.80025391 6.86996094 33.78800781 5.99804688 33.77539062 C-0.33487065 33.62368695 -0.33487065 33.62368695 -6 36 Z M32 36 C33.98 39.96 35.96 43.92 38 48 C40.18975773 44.71536341 40.99806563 41.79303725 42 38 C38.7 37.34 35.4 36.68 32 36 Z M-21.125 37 C-22.40375 37.33 -23.6825 37.66 -25 38 C-24.01 41.3 -23.02 44.6 -22 48 C-17.24487184 42.51719213 -17.24487184 42.51719213 -15 36 C-17.21029533 36 -18.98667593 36.44817443 -21.125 37 Z M49 40 C43.80429819 50.35881928 43.80429819 50.35881928 43.9375 61.4375 C44.59401138 62.97196508 45.28183112 64.49340658 46 66 C46.58175011 67.70187421 47.14513454 69.41016802 47.6875 71.125 C48.12344701 72.41719164 48.56033498 73.70906867 49 75 C58.54299406 71.71232217 68.59782473 68.16021024 74 59 C74.22863214 56.10399286 73.48176651 54.6757451 71.81640625 52.33984375 C66.08842025 45.84050802 57.42745319 41.7634087 49 40 Z M-52.72265625 50.62890625 C-55.1252011 53.12183448 -55.1252011 53.12183448 -57 56 C-56.85129904 58.9786662 -56.38750819 60.52244421 -54.50390625 62.84375 C-47.6715269 68.67258067 -40.53278144 72.26703667 -32 75 C-26.83185439 64.28888537 -26.83185439 64.28888537 -26.9375 53 C-27.60100271 51.65456394 -28.28924242 50.32108202 -29 49 C-29.58957884 47.321769 -30.15260617 45.6339525 -30.6875 43.9375 C-30.93886719 43.18339844 -31.19023438 42.42929688 -31.44921875 41.65234375 C-31.63097656 41.10707031 -31.81273438 40.56179688 -32 40 C-38.72569572 40 -48.04844906 46.20907768 -52.72265625 50.62890625 Z M-22 67 C-22.99 70.3 -23.98 73.6 -25 77 C-20.05 77.99 -20.05 77.99 -15 79 C-16.56641751 74.69235185 -18.68336156 70.93828536 -21 67 C-21.33 67 -21.66 67 -22 67 Z M38 67 C37.16151196 68.45537568 36.32936066 69.91440373 35.5 71.375 C35.0359375 72.18710938 34.571875 72.99921875 34.09375 73.8359375 C32.84964141 75.89336874 32.84964141 75.89336874 33 78 C37.455 77.505 37.455 77.505 42 77 C41.01 73.7 40.02 70.4 39 67 C38.67 67 38.34 67 38 67 Z M-27 84 C-29.0384744 93.50164925 -29.83108735 102.31399192 -26.8125 111.6875 C-25.16065374 114.17025387 -25.16065374 114.17025387 -22.4375 115.125 C-13.18101417 114.78840052 -4.6451436 109.15244284 2 103 C2 99.47967572 1.29648649 98.5614657 -1 96 C-1.66 96 -2.32 96 -3 96 C-3.2475 95.443125 -3.495 94.88625 -3.75 94.3125 C-6.34255837 89.25019969 -6.34255837 89.25019969 -11.01269531 86.31518555 C-13.42115869 85.83699738 -15.81289405 85.48642628 -18.25 85.1875 C-19.51070312 85.00670898 -19.51070312 85.00670898 -20.796875 84.82226562 C-22.86194107 84.52893238 -24.93070683 84.261855 -27 84 Z M22.49609375 89.98828125 C17.04914078 95.75731882 17.04914078 95.75731882 15 103 C21.12758383 108.77201804 28.69628515 113.33396804 37 115 C40.52425238 114.74793376 40.52425238 114.74793376 43 113 C46.82519514 107.89973981 46.0694678 100.8405945 45.625 94.8125 C45.58117187 94.10158203 45.53734375 93.39066406 45.4921875 92.65820312 C45.28358876 89.5784745 44.98046504 86.94139512 44 84 C36.40667293 84 28.17726555 84.49918637 22.49609375 89.98828125 Z M2 88 C3.98 90.64 5.96 93.28 8 96 C9.32 95.01 10.64 94.02 12 93 C12 92.34 12 91.68 12 91 C12.66 91 13.32 91 14 91 C14.33 90.01 14.66 89.02 15 88 C10.71 88 6.42 88 2 88 Z " fill="#6DCDED" transform="translate(126,982)"/>
<path d="M0 0 C20.13 0 40.26 0 61 0 C59.0155671 3.96886581 56.76032886 6.51645536 53.66748047 9.57543945 C52.85238762 10.39337982 52.85238762 10.39337982 52.02082825 11.22784424 C50.22446267 13.02791141 48.42099955 14.82067849 46.6171875 16.61328125 C45.36089192 17.86838374 44.10496686 19.12385721 42.84939575 20.37968445 C40.2145281 23.01298787 37.57633642 25.64289926 34.93554688 28.27026367 C31.5682616 31.62063809 28.2075166 34.97747754 24.84905815 38.33669758 C22.25323708 40.9322451 19.6548048 43.52516531 17.05551529 46.117239 C15.81670541 47.35288848 14.57848109 48.58912534 13.34087753 49.82598305 C7.72047486 55.43929775 2.10818082 60.99216721 -3.93533325 66.1542511 C-8.27544395 70.03417727 -12.32153831 74.23329344 -16.41489792 78.37029839 C-18.11872998 80.09172486 -19.82625724 81.80940833 -21.53482056 83.52613831 C-26.38578559 88.40140003 -31.23084333 93.28250304 -36.07177734 98.16772461 C-39.04640703 101.16905492 -42.02582456 104.1655617 -45.00828934 107.1591053 C-46.14172863 108.29876235 -47.27326564 109.44031452 -48.40287399 110.58376884 C-49.97292296 112.17292334 -51.54893401 113.7559241 -53.12646484 115.33764648 C-54.0216684 116.24030746 -54.91687195 117.14296844 -55.83920288 118.07298279 C-58 120 -58 120 -60 120 C-60.33197708 112.26400174 -60.55821581 104.52986145 -60.71411133 96.78833008 C-60.77914508 94.16035347 -60.86760876 91.53284102 -60.98071289 88.90649414 C-61.99685803 64.68913463 -61.99685803 64.68913463 -55.47453308 57.59172058 C-52.7902115 55.15330152 -49.96380363 53.09224385 -47 51 C-44.85466632 48.79409154 -44.85466632 48.79409154 -43.25 46.75 C-39.99067191 42.90104472 -36.43373002 39.39823904 -32.8203125 35.8828125 C-30.93616102 34.12246661 -30.93616102 34.12246661 -30 32 C-29.34 32 -28.68 32 -28 32 C-27.66548828 31.17242187 -27.66548828 31.17242187 -27.32421875 30.328125 C-25.58445903 27.2694324 -23.34235518 25.1926188 -20.8125 22.75 C-16.89786307 18.92717214 -13.18110061 15.01694419 -9.6328125 10.8515625 C-7.3410998 8.25282609 -4.87619916 5.84925031 -2.3828125 3.4453125 C-0.89145515 2.02890223 -0.89145515 2.02890223 0 0 Z " fill="#E77945" transform="translate(408,339)"/>
<path d="M0 0 C3.36223846 1.45733388 6.4402736 3.27944956 9.53125 5.23046875 C15.71423474 9.08488306 21.98612462 12.54108218 28.40625 16.04296875 C28.73625 35.51296875 29.06625 54.98296875 29.40625 75.04296875 C38.81125 69.59796875 38.81125 69.59796875 48.40625 64.04296875 C49.06625 64.04296875 49.72625 64.04296875 50.40625 64.04296875 C50.38006592 63.12483398 50.35388184 62.20669922 50.3269043 61.26074219 C50.24156627 57.84635695 50.17894926 54.43310814 50.1315918 51.01806641 C50.10648263 49.54164729 50.07238745 48.06535207 50.02905273 46.58935547 C49.968232 44.46420735 49.94000791 42.34070481 49.91796875 40.21484375 C49.89178467 38.93706055 49.86560059 37.65927734 49.83862305 36.34277344 C50.40625 33.04296875 50.40625 33.04296875 52.62133789 30.78100586 C55.21377179 29.16309257 57.78806352 27.55798572 60.453125 26.0625 C61.37996094 25.53849609 62.30679687 25.01449219 63.26171875 24.47460938 C64.21691406 23.94029297 65.17210937 23.40597656 66.15625 22.85546875 C68.06847202 21.78000258 69.97997132 20.70325001 71.890625 19.625 C72.73334961 19.15296143 73.57607422 18.68092285 74.44433594 18.19458008 C76.34141765 17.19175534 76.34141765 17.19175534 77.40625 16.04296875 C82.10607573 15.63929497 84.83301781 16.43392365 88.8828125 18.78125 C89.883125 19.35423828 90.8834375 19.92722656 91.9140625 20.51757812 C92.94273438 21.12408203 93.97140625 21.73058594 95.03125 22.35546875 C96.58585937 23.24782227 96.58585937 23.24782227 98.171875 24.15820312 C100.93753404 25.75721142 103.69229179 27.35767527 106.40625 29.04296875 C107.5355896 29.64310791 107.5355896 29.64310791 108.68774414 30.25537109 C111.35518222 33.03005239 111.07534804 36.12569145 111.11328125 39.78125 C111.12896652 40.53963669 111.14465179 41.29802338 111.16081238 42.07939148 C111.18543247 43.68390215 111.19901833 45.28861455 111.20239258 46.89331055 C111.21864209 49.33922649 111.30402459 51.77647758 111.39257812 54.22070312 C111.59645921 65.51069997 111.59645921 65.51069997 108.6418457 69.31445312 C106.29551086 70.90285056 104.02665168 71.97464133 101.40625 73.04296875 C99.95896378 73.87554652 98.52212854 74.72662132 97.09765625 75.59765625 C95.7234347 76.37478437 94.34714471 77.14826686 92.96875 77.91796875 C91.91010742 78.52125 91.91010742 78.52125 90.83007812 79.13671875 C85.65517379 82.04296875 85.65517379 82.04296875 83.40625 82.04296875 C83.47432861 82.97044922 83.54240723 83.89792969 83.61254883 84.85351562 C83.83549108 88.32854925 83.99755216 91.79592336 84.12036133 95.27539062 C84.18538545 96.77401116 84.27386159 98.27181753 84.38696289 99.76757812 C84.7569251 104.7896896 84.7800204 109.16541154 83.40625 114.04296875 C80.10106717 117.41912671 76.51133204 119.28863212 72.21792603 121.20465088 C69.36123211 122.52653047 66.70790556 124.1696343 64.01171875 125.7890625 C58.50946563 128.96244911 52.99725579 132.1185543 47.484375 135.2734375 C44.76202053 136.83844584 42.05065439 138.42020004 39.34375 140.01171875 C37.92718454 140.83480962 36.51052688 141.65774184 35.09375 142.48046875 C34.47330811 142.85163818 33.85286621 143.22280762 33.21362305 143.60522461 C29.78995865 145.57338553 27.34884073 146.7434605 23.40625 146.04296875 C20.34765625 144.57421875 20.34765625 144.57421875 16.96875 142.54296875 C15.70720635 141.79527739 14.44548304 141.04788912 13.18359375 140.30078125 C12.5479248 139.91954102 11.91225586 139.53830078 11.25732422 139.14550781 C8.53951338 137.52672204 5.78477958 135.97504423 3.03125 134.41796875 C0.48824517 132.96191684 -2.05330176 131.50346715 -4.59375 130.04296875 C-5.55361816 129.49205566 -6.51348633 128.94114258 -7.50244141 128.37353516 C-10.76514682 126.49783996 -14.02354453 124.61483253 -17.28125 122.73046875 C-18.87815674 121.81370361 -18.87815674 121.81370361 -20.50732422 120.87841797 C-21.50908691 120.29721191 -22.51084961 119.71600586 -23.54296875 119.1171875 C-24.44362061 118.59729248 -25.34427246 118.07739746 -26.2722168 117.54174805 C-28.42872225 116.14951048 -29.95593834 115.00267758 -31.59375 113.04296875 C-31.93180461 109.96538332 -32.08602134 107.08418726 -32.10888672 104.00097656 C-32.12699402 103.07543976 -32.14510132 102.14990295 -32.16375732 101.19631958 C-32.2178419 98.12954954 -32.2479693 95.06322834 -32.2734375 91.99609375 C-32.28441593 90.94845604 -32.29539436 89.90081833 -32.30670547 88.82143402 C-32.36342044 83.27614173 -32.40125033 77.73107693 -32.42431641 72.18554688 C-32.45192793 66.46001372 -32.5447327 60.73749105 -32.65263176 55.01298904 C-32.72359797 50.60851591 -32.74550296 46.20476197 -32.75421524 41.79976654 C-32.76697528 39.68971298 -32.79823869 37.57968597 -32.84847641 35.47019196 C-33.21628555 18.95883327 -33.21628555 18.95883327 -29.23501587 14.2578125 C-26.39728989 12.42444737 -23.75132253 11.21878784 -20.59375 10.04296875 C-18.96413464 9.10418913 -17.34851601 8.14002116 -15.7578125 7.13671875 C-14.24670286 6.26879937 -12.73370591 5.40415686 -11.21875 4.54296875 C-10.45175781 4.08921875 -9.68476562 3.63546875 -8.89453125 3.16796875 C-3.40177349 0.05635468 -3.40177349 0.05635468 0 0 Z M-6.28515625 8.66796875 C-7.70151367 9.48007812 -7.70151367 9.48007812 -9.14648438 10.30859375 C-10.13970703 10.8809375 -11.13292969 11.45328125 -12.15625 12.04296875 C-13.65188477 12.90148437 -13.65188477 12.90148437 -15.17773438 13.77734375 C-17.65084412 15.19731107 -20.12278704 16.61927 -22.59375 18.04296875 C-17.10894633 23.83124579 -9.23111158 28.74327986 -1.59375 31.04296875 C3.41242277 30.36766562 6.46670944 28.08301883 10.40625 25.04296875 C12.31153103 23.89879205 14.22762773 22.77234742 16.15625 21.66796875 C17.57572678 20.79753488 18.99354321 19.92434777 20.40625 19.04296875 C16.28070703 15.5021484 11.89071432 12.9071424 7.15625 10.29296875 C6.4240625 9.88175781 5.691875 9.47054687 4.9375 9.046875 C-0.76291071 5.77887447 -0.76291071 5.77887447 -6.28515625 8.66796875 Z M69.71875 27.41796875 C68.82607422 27.92585937 67.93339844 28.43375 67.01367188 28.95703125 C66.16998047 29.446875 65.32628906 29.93671875 64.45703125 30.44140625 C63.68012939 30.89177246 62.90322754 31.34213867 62.1027832 31.80615234 C61.26299927 32.41837646 61.26299927 32.41837646 60.40625 33.04296875 C60.40625 33.70296875 60.40625 34.36296875 60.40625 35.04296875 C63.28746103 37.21095435 66.47711028 38.9232269 69.59375 40.73046875 C70.45806641 41.25447266 71.32238281 41.77847656 72.21289062 42.31835938 C73.05400391 42.80884766 73.89511719 43.29933594 74.76171875 43.8046875 C75.91643677 44.48470825 75.91643677 44.48470825 77.09448242 45.1784668 C80.01020223 46.26882099 81.46034375 45.97025441 84.40625 45.04296875 C87.46290966 43.60703651 90.32100684 41.83731357 93.21875 40.10546875 C94.00701172 39.64978516 94.79527344 39.19410156 95.60742188 38.72460938 C96.35185547 38.28439453 97.09628906 37.84417969 97.86328125 37.390625 C98.8838562 36.7874646 98.8838562 36.7874646 99.92504883 36.17211914 C100.41384521 35.79949951 100.9026416 35.42687988 101.40625 35.04296875 C101.40625 34.38296875 101.40625 33.72296875 101.40625 33.04296875 C99.64596197 31.71446653 99.64596197 31.71446653 97.35546875 30.44140625 C96.51177734 29.9515625 95.66808594 29.46171875 94.79882812 28.95703125 C93.45981445 28.19519531 93.45981445 28.19519531 92.09375 27.41796875 C91.21267578 26.90234375 90.33160156 26.38671875 89.42382812 25.85546875 C80.82557838 20.91229247 78.01711782 22.56157208 69.71875 27.41796875 Z M-25.59375 24.04296875 C-25.59375 52.75296875 -25.59375 81.46296875 -25.59375 111.04296875 C-18.00375 115.33296875 -10.41375 119.62296875 -2.59375 124.04296875 C1.03625 126.35296875 4.66625 128.66296875 8.40625 131.04296875 C10.36958625 132.1750445 12.3444569 133.28817694 14.34375 134.35546875 C15.65666016 135.06123047 15.65666016 135.06123047 16.99609375 135.78125 C19.12129249 136.89379326 21.259173 137.97354017 23.40625 139.04296875 C23.66858625 135.00254202 23.82775491 130.96430394 23.96875 126.91796875 C24.08186523 125.20480469 24.08186523 125.20480469 24.19726562 123.45703125 C24.49684994 117.27587027 24.49684994 117.27587027 21.65942383 112.07080078 C19.31387891 110.48582938 16.96330688 109.25385347 14.40625 108.04296875 C12.96413921 107.20145844 11.52761529 106.35027911 10.09765625 105.48828125 C8.7234347 104.71115313 7.34714471 103.93767064 5.96875 103.16796875 C5.26298828 102.76578125 4.55722656 102.36359375 3.83007812 101.94921875 C0.33474994 99.79572454 0.33474994 99.79572454 -3.59375 99.04296875 C-3.55155838 98.27812668 -3.50936676 97.51328461 -3.46589661 96.7252655 C-3.08327832 89.47447923 -2.79509206 82.22864651 -2.60931873 74.97036266 C-2.5105704 71.23892961 -2.37712717 67.51589737 -2.16040039 63.78930664 C-0.59024807 47.89706243 -0.59024807 47.89706243 -5.47161865 33.59039307 C-10.5322837 29.29416212 -16.28198332 26.91432186 -22.59375 25.04296875 C-23.58375 24.71296875 -24.57375 24.38296875 -25.59375 24.04296875 Z M3.40161133 33.62329102 C-3.20164316 41.63073691 -0.47949998 55.16555492 0.15625 64.79296875 C0.25667863 67.4358615 0.34791517 70.0791205 0.4296875 72.72265625 C0.64908962 79.17080702 0.98262278 85.60517983 1.40625 92.04296875 C2.21231689 91.57101074 3.01838379 91.09905273 3.84887695 90.61279297 C5.44928833 89.67717529 5.44928833 89.67717529 7.08203125 88.72265625 C8.13559814 88.10632324 9.18916504 87.48999023 10.2746582 86.85498047 C13.74334945 84.84791518 17.24179184 82.90362887 20.76171875 80.98828125 C22.38704976 80.14905308 22.38704976 80.14905308 23.40625 79.04296875 C23.4998419 77.32431466 23.52369611 75.60181131 23.51977539 73.88061523 C23.51966209 72.22901649 23.51966209 72.22901649 23.51954651 70.54405212 C23.51438522 69.34615555 23.50922394 68.14825897 23.50390625 66.9140625 C23.5024913 65.69469498 23.50107635 64.47532745 23.49961853 63.2190094 C23.49399967 59.30613805 23.48144396 55.39332294 23.46875 51.48046875 C23.46373743 48.83528728 23.4591741 46.19010492 23.45507812 43.54492188 C23.44402411 37.04425149 23.42726764 30.54361414 23.40625 24.04296875 C16.40708294 24.04296875 8.58105786 29.32351772 3.40161133 33.62329102 Z M56.40625 39.04296875 C56.40625 47.29296875 56.40625 55.54296875 56.40625 64.04296875 C59.850625 66.02296875 63.295 68.00296875 66.84375 70.04296875 C68.47461548 70.98269531 68.47461548 70.98269531 70.13842773 71.94140625 C71.41375366 72.67230469 71.41375366 72.67230469 72.71484375 73.41796875 C73.58939209 73.92070313 74.46394043 74.4234375 75.36499023 74.94140625 C77.16633549 76.1221203 77.16633549 76.1221203 78.40625 76.04296875 C78.40625 67.79296875 78.40625 59.54296875 78.40625 51.04296875 C76.818125 50.17671875 75.23 49.31046875 73.59375 48.41796875 C67.86458333 45.29296875 62.13541667 42.16796875 56.40625 39.04296875 Z M99.71484375 41.66796875 C98.86462646 42.15523437 98.01440918 42.6425 97.13842773 43.14453125 C96.05118408 43.77101563 94.96394043 44.3975 93.84375 45.04296875 C90.399375 47.02296875 86.955 49.00296875 83.40625 51.04296875 C83.40625 59.29296875 83.40625 67.54296875 83.40625 76.04296875 C84.994375 75.17671875 86.5825 74.31046875 88.21875 73.41796875 C93.94791667 70.29296875 99.67708333 67.16796875 105.40625 64.04296875 C105.40625 55.79296875 105.40625 47.54296875 105.40625 39.04296875 C103.37994382 39.04296875 101.406988 40.69523912 99.71484375 41.66796875 Z M46.50390625 71.68359375 C45.54049316 72.25432617 44.57708008 72.82505859 43.58447266 73.41308594 C42.55628418 74.03344727 41.5280957 74.65380859 40.46875 75.29296875 C38.31179936 76.575231 36.15423439 77.85646037 33.99609375 79.13671875 C32.35616455 80.11318359 32.35616455 80.11318359 30.68310547 81.109375 C24.78037403 84.59243513 18.80715941 87.95217732 12.83227539 91.30957031 C12.01364014 91.77331055 11.19500488 92.23705078 10.3515625 92.71484375 C9.63500488 93.11799805 8.91844727 93.52115234 8.18017578 93.93652344 C6.25266265 95.04605481 6.25266265 95.04605481 4.40625 97.04296875 C6.94690934 98.48227339 9.48873022 99.91945714 12.03125 101.35546875 C12.74410156 101.75958984 13.45695312 102.16371094 14.19140625 102.58007812 C15.59994953 103.37480667 17.01260471 104.16229519 18.42944336 104.94213867 C20.18633254 105.92050268 21.91401345 106.95090853 23.63671875 107.98828125 C26.33093955 109.3509272 26.33093955 109.3509272 28.79296875 108.234375 C29.55222656 107.69683594 30.31148437 107.15929688 31.09375 106.60546875 C36.32526039 103.00033465 41.8193084 100.05343178 47.40625 97.04296875 C51.76890311 94.66234077 56.12039292 92.26209048 60.46875 89.85546875 C61.59474609 89.23994141 62.72074219 88.62441406 63.88085938 87.99023438 C64.95271484 87.39533203 66.02457031 86.80042969 67.12890625 86.1875 C68.09578369 85.65487549 69.06266113 85.12225098 70.05883789 84.57348633 C72.65055912 83.10337102 72.65055912 83.10337102 74.40625 80.04296875 C71.33121155 78.1954442 68.24497116 76.36751085 65.15625 74.54296875 C64.28355469 74.01832031 63.41085937 73.49367188 62.51171875 72.953125 C61.24521484 72.20869141 61.24521484 72.20869141 59.953125 71.44921875 C59.17807617 70.98837891 58.40302734 70.52753906 57.60449219 70.05273438 C53.13419149 67.99929549 50.41085232 69.34112784 46.50390625 71.68359375 Z M72.28515625 88.28125 C71.01901489 89.0091272 71.01901489 89.0091272 69.72729492 89.75170898 C68.8169751 90.28094971 67.90665527 90.81019043 66.96875 91.35546875 C65.56749878 92.16383179 65.56749878 92.16383179 64.13793945 92.98852539 C62.19081042 94.11254466 60.24478209 95.23847263 58.29980469 96.36621094 C55.55974147 97.95402347 52.81581592 99.53489882 50.0703125 101.11328125 C48.41131895 102.06876845 46.75245871 103.02448716 45.09375 103.98046875 C44.33715088 104.41593018 43.58055176 104.8513916 42.80102539 105.30004883 C41.3612926 106.13302222 39.92961808 106.98011677 38.50732422 107.8425293 C36.40625 109.04296875 36.40625 109.04296875 34.10595703 110.01879883 C31.69969759 111.150203 30.15571007 112.03005791 28.40625 114.04296875 C27.42094911 118.34871445 27.65061643 122.46791175 27.90625 126.85546875 C27.94234375 128.02529297 27.9784375 129.19511719 28.015625 130.40039062 C28.10980284 133.28458706 28.24117561 136.16210326 28.40625 139.04296875 C38.51354773 133.77599264 48.38742989 128.196481 58.17871094 122.36474609 C60.52283287 120.9737908 62.87367228 119.59481708 65.2265625 118.21875 C66.0098291 117.76032715 66.7930957 117.3019043 67.60009766 116.82958984 C69.11229107 115.94494229 70.62496985 115.06112378 72.13818359 114.17822266 C75.46233633 112.36983384 75.46233633 112.36983384 78.40625 110.04296875 C78.49351223 108.26225629 78.51324041 106.47813735 78.50390625 104.6953125 C78.50068359 103.61572266 78.49746094 102.53613281 78.49414062 101.42382812 C78.48576172 100.28751953 78.47738281 99.15121094 78.46875 97.98046875 C78.46423828 96.84029297 78.45972656 95.70011719 78.45507812 94.52539062 C78.44324747 91.69786524 78.4267641 88.87044235 78.40625 86.04296875 C75.78840634 86.04296875 74.55187004 86.97061164 72.28515625 88.28125 Z " fill="#E8332B" transform="translate(1910.59375,964.95703125)"/>
<path d="M0 0 C25.08 0 50.16 0 76 0 C76.103125 9.8175 76.20625 19.635 76.3125 29.75 C76.35802002 32.84600586 76.40354004 35.94201172 76.45043945 39.13183594 C76.46504091 41.58267126 76.47778238 44.03351867 76.48828125 46.484375 C76.51386108 47.75941895 76.53944092 49.03446289 76.5657959 50.34814453 C76.56640015 51.5658252 76.56700439 52.78350586 76.56762695 54.03808594 C76.57873001 55.09509705 76.58983307 56.15210815 76.60127258 57.2411499 C76 60 76 60 73.87667847 62.34324646 C70.43170203 64.3272975 68.36553007 64.49007755 64.40551758 64.4699707 C63.09098099 64.47289627 61.7764444 64.47582184 60.42207336 64.47883606 C58.99621898 64.46172562 57.57037156 64.44402674 56.14453125 64.42578125 C54.67673689 64.42085485 53.20893624 64.4175576 51.74113464 64.41581726 C48.67202544 64.4081915 45.60338499 64.38767091 42.53442383 64.35668945 C38.59663905 64.3170107 34.65915814 64.29906228 30.72119617 64.28938007 C26.96643327 64.2794201 23.21174473 64.25953244 19.45703125 64.23828125 C18.73912729 64.2348855 18.02122334 64.23148975 17.28156471 64.2279911 C15.2564377 64.21644045 13.23136085 64.19691809 11.20629883 64.17700195 C9.47685783 64.16223564 9.47685783 64.16223564 7.71247864 64.14717102 C5 64 5 64 3 63 C3 62.34 3 61.68 3 61 C2.34 61 1.68 61 1 61 C-0.32953792 58.34092416 -0.11986031 56.33434632 -0.11352539 53.35693359 C-0.11340454 52.15931396 -0.11328369 50.96169434 -0.11315918 49.7277832 C-0.10548523 47.83225708 -0.10548523 47.83225708 -0.09765625 45.8984375 C-0.09664917 44.74061768 -0.09564209 43.58279785 -0.09460449 42.38989258 C-0.08935985 38.05158502 -0.07539867 33.71329155 -0.0625 29.375 C-0.041875 19.68125 -0.02125 9.9875 0 0 Z " fill="#99C33C" transform="translate(1651,1657)"/>
<path d="M0 0 C-0.33 0.99 -0.66 1.98 -1 3 C-1.66 3 -2.32 3 -3 3 C-3.33 3.99 -3.66 4.98 -4 6 C-4.66 6 -5.32 6 -6 6 C-6.33 6.99 -6.66 7.98 -7 9 C-7.66 9 -8.32 9 -9 9 C-9.33 9.99 -9.66 10.98 -10 12 C-10.66 12 -11.32 12 -12 12 C-12.33 12.99 -12.66 13.98 -13 15 C-13.66 15 -14.32 15 -15 15 C-15.33 15.99 -15.66 16.98 -16 18 C-16.66 18 -17.32 18 -18 18 C-18 18.66 -18 19.32 -18 20 C-19.66215268 21.33895632 -21.32963607 22.67130142 -23 24 C-23.66 24.825 -24.32 25.65 -25 26.5 C-27.10319635 29.12899543 -29.37899543 30.90319635 -32 33 C-32.66 33.825 -33.32 34.65 -34 35.5 C-36.10319635 38.12899543 -38.37899543 39.90319635 -41 42 C-41.721875 42.9075 -42.44375 43.815 -43.1875 44.75 C-43.785625 45.4925 -44.38375 46.235 -45 47 C-45.66 47 -46.32 47 -47 47 C-47.33 47.99 -47.66 48.98 -48 50 C-48.66 50 -49.32 50 -50 50 C-50.33 50.99 -50.66 51.98 -51 53 C-51.66 53 -52.32 53 -53 53 C-53.33 53.99 -53.66 54.98 -54 56 C-54.66 56 -55.32 56 -56 56 C-56.33 56.99 -56.66 57.98 -57 59 C-57.66 59 -58.32 59 -59 59 C-59.33 59.99 -59.66 60.98 -60 62 C-60.66 62 -61.32 62 -62 62 C-62.33 62.99 -62.66 63.98 -63 65 C-63.66 65 -64.32 65 -65 65 C-65.495 66.485 -65.495 66.485 -66 68 C-66.66 68 -67.32 68 -68 68 C-68 68.66 -68 69.32 -68 70 C-69.66215268 71.33895632 -71.32963607 72.67130142 -73 74 C-73.66 74.825 -74.32 75.65 -75 76.5 C-77.10364186 79.12955233 -79.33886334 80.9529718 -82 83 C-82.515625 83.598125 -83.03125 84.19625 -83.5625 84.8125 C-85 86 -85 86 -86.9375 86 C-89.82533057 84.59983972 -91.08311835 82.5558422 -93 80 C-97.07180353 75.70198517 -101.51810586 71.85909992 -106 68 C-105.58960238 63.01420245 -103.00265567 60.20316674 -99.76977539 56.64916992 C-98.94904037 55.7263623 -98.94904037 55.7263623 -98.11172485 54.78491211 C-92.99685691 49.07579008 -87.74199167 43.49300302 -82.45143986 37.94680309 C-78.91070876 34.23328309 -75.42128026 30.49281153 -72.0300293 26.6418457 C-49.96297186 1.65927379 -33.20444685 -4.95742741 0 0 Z " fill="#64C8F2" transform="translate(1079,70)"/>
<path d="M0 0 C15.51 0 31.02 0 47 0 C47 14.46346154 47 14.46346154 46.125 20.6953125 C45.18497424 27.90507929 44.5443964 35.1172723 44 42.3671875 C43.91766113 43.46218567 43.83532227 44.55718384 43.75048828 45.68536377 C43.49769715 49.08172109 43.24833687 52.47831427 43 55.875 C41.89464229 70.94629329 40.70301314 85.98313812 39 101 C31.97385806 103.36287201 24.92030158 105.58197312 17.8125 107.6875 C16.75869141 108.00783203 15.70488281 108.32816406 14.61914062 108.65820312 C13.59626953 108.96048828 12.57339844 109.26277344 11.51953125 109.57421875 C10.14438354 109.98546997 10.14438354 109.98546997 8.74145508 110.4050293 C6 111 6 111 0 111 C0 74.37 0 37.74 0 0 Z M6 16 C6 31.84 6 47.68 6 64 C17.02177416 62.64937198 17.02177416 62.64937198 28 61 C28 65.29 28 69.58 28 74 C26.411875 74.268125 24.82375 74.53625 23.1875 74.8125 C17.34304107 75.86753869 11.70870766 77.36894067 6 79 C6 82.96 6 86.92 6 91 C15.73202452 88.89085937 25.43259496 86.78171248 35 84 C36.89504327 72.02259062 37.56957989 60.10950234 38 48 C35.66585761 48.11549142 33.33317081 48.24218193 31 48.375 C29.700625 48.44460938 28.40125 48.51421875 27.0625 48.5859375 C22.29298538 48.9742903 22.29298538 48.9742903 15 51 C15 43.41 15 35.82 15 28 C23.25 28 31.5 28 40 28 C40 24.04 40 20.08 40 16 C28.78 16 17.56 16 6 16 Z " fill="#F9DB48" transform="translate(1047,1895)"/>
<path d="M0 0 C13.86 0 27.72 0 42 0 C41.0342586 3.86296561 40.72360482 4.67347797 38.0625 7.25 C37.53785156 7.77078125 37.01320313 8.2915625 36.47265625 8.828125 C35 10 35 10 33 10 C32.67 10.99 32.34 11.98 32 13 C31.34 13 30.68 13 30 13 C30 13.66 30 14.32 30 15 C28.70703125 16.26953125 28.70703125 16.26953125 26.8125 17.8125 C20.50477121 23.15418024 14.79990037 29.12052783 9 35 C10.52170154 38.58939226 12.64303972 40.88771871 15.39453125 43.625 C16.26787109 44.49640625 17.14121094 45.3678125 18.04101562 46.265625 C18.95560547 47.16796875 19.87019531 48.0703125 20.8125 49 C21.71548828 49.90234375 22.61847656 50.8046875 23.54882812 51.734375 C28.43590952 56.61567715 28.43590952 56.61567715 33.6628418 61.12109375 C36.20653934 63.1660427 37.99323496 65.4396446 40 68 C40.66 68.33 41.32 68.66 42 69 C42 69.99 42 70.98 42 72 C36.14692822 72.19844802 30.29583206 72.343246 24.44018555 72.43945312 C22.4505806 72.479572 20.46120988 72.53408374 18.47241211 72.60351562 C15.60471803 72.7010904 12.74015044 72.74603859 9.87109375 72.78125 C8.98852402 72.82254028 8.10595428 72.86383057 7.19664001 72.90637207 C3.35601855 72.90913367 0.96307688 72.81331808 -2.03927612 70.27783203 C-3.88647461 68.15039062 -3.88647461 68.15039062 -5.45567322 66.03381348 C-7.02766622 63.96356475 -8.67296947 62.44407695 -10.6875 60.8125 C-13.54949483 58.46043743 -15.70058231 55.91259574 -18 53 C-18.825 52.34 -19.65 51.68 -20.5 51 C-23.12899543 48.89680365 -24.90319635 46.62100457 -27 44 C-28.64295195 42.63755204 -30.30824337 41.30135125 -32 40 C-33.0173873 39.01769502 -34.02596117 38.02530403 -35 37 C-34.67 36.01 -34.34 35.02 -34 34 C-33.34 34 -32.68 34 -32 34 C-31.67 33.01 -31.34 32.02 -31 31 C-30.34 31 -29.68 31 -29 31 C-28.67 30.01 -28.34 29.02 -28 28 C-27.34 28 -26.68 28 -26 28 C-25.67 27.01 -25.34 26.02 -25 25 C-24.34 25 -23.68 25 -23 25 C-22.67 24.01 -22.34 23.02 -22 22 C-21.34 22 -20.68 22 -20 22 C-19.67 21.01 -19.34 20.02 -19 19 C-18.34 19 -17.68 19 -17 19 C-16.67 18.01 -16.34 17.02 -16 16 C-15.34 16 -14.68 16 -14 16 C-13.67 15.01 -13.34 14.02 -13 13 C-12.34 13 -11.68 13 -11 13 C-10.67 12.01 -10.34 11.02 -10 10 C-9.34 10 -8.68 10 -8 10 C-8 9.34 -8 8.68 -8 8 C-6.625 6.375 -6.625 6.375 -5 5 C-4.34 5 -3.68 5 -3 5 C-2.67 4.01 -2.34 3.02 -2 2 C-1.34 2 -0.68 2 0 2 C0 1.34 0 0.68 0 0 Z " fill="#5EC6F0" transform="translate(1037,130)"/>
<path d="M0 0 C4.95 0.33 9.9 0.66 15 1 C13.0009406 4.99811879 11.11727503 6.88272497 8 10 C4.22446614 14.29812602 2.54081431 17.84825781 1.80126953 23.5078125 C0.96373665 29.91487118 -0.05564511 35.10534911 -5.2121582 39.3215332 C-7.46505802 40.91817795 -9.7620181 42.40731012 -12.12548828 43.83496094 C-14.81674451 45.5076198 -17.35314118 47.37437842 -19.91259766 49.24023438 C-22.58762291 51.18995722 -25.29416765 53.09334152 -28 55 C-24.60615794 63.19445804 -13.41861833 67.08962548 -6 71 C-6.66495562 75.99766643 -7.98902485 78.92061431 -11 83 C-15.40114397 82.49701212 -17.71195019 80.91227269 -21 78 C-19.35 81.3 -17.7 84.6 -16 88 C-24.67647059 96.92436975 -24.67647059 96.92436975 -28.1875 97.125 C-30.97407631 95.39540091 -31.21682527 93.06743434 -32 90 C-32.33 92.97 -32.66 95.94 -33 99 C-36.49297416 97.25351292 -37.80259292 96.43293687 -40.1875 93.625 C-40.69667969 93.03976562 -41.20585938 92.45453125 -41.73046875 91.8515625 C-44.05292456 88.46435003 -44.12161487 85.26981134 -44.0625 81.25 C-44.05347656 80.45078125 -44.04445313 79.6515625 -44.03515625 78.828125 C-44.01775391 77.92320312 -44.01775391 77.92320312 -44 77 C-44.66 77 -45.32 77 -46 77 C-46.12375 77.7425 -46.2475 78.485 -46.375 79.25 C-46.95486701 81.80141485 -47.73708739 83.7267573 -49 86 C-51.36881532 82.44677702 -51.24570308 80.92519424 -51.23046875 76.71484375 C-51.22853516 75.46123047 -51.22660156 74.20761719 -51.22460938 72.91601562 C-51.21236328 71.60310547 -51.20011719 70.29019531 -51.1875 68.9375 C-51.18685547 67.65166016 -51.18621094 66.36582031 -51.18554688 65.04101562 C-51.09390625 45.09390625 -51.09390625 45.09390625 -48 42 C-46.46802674 45.87697078 -44.93815289 49.75476156 -43.41015625 53.63330078 C-42.89086546 54.95058133 -42.3710177 56.26764247 -41.85058594 57.58447266 C-41.09941779 59.48541734 -40.35030573 61.3871616 -39.6015625 63.2890625 C-39.15119629 64.43068848 -38.70083008 65.57231445 -38.23681641 66.74853516 C-37.07253502 69.8093128 -36.01065286 72.88553914 -35 76 C-33.58025578 61.92064387 -33.58025578 61.92064387 -39.125 49.5625 C-39.89070313 48.78003906 -40.65640625 47.99757813 -41.4453125 47.19140625 C-43 45 -43 45 -42.59765625 42.609375 C-40.54419122 39.25554947 -38.02963749 36.50167811 -35.3125 33.6875 C-34.22469328 32.53308624 -33.1374513 31.37814004 -32.05078125 30.22265625 C-31.52564941 29.66852051 -31.00051758 29.11438477 -30.45947266 28.54345703 C-21.84218236 19.61203502 -21.84218236 19.61203502 -17.25 8.3125 C-15.83844527 4.57187996 -15.28866807 4.26334514 -11.875 2.5625 C-10.59335952 2.01746072 -9.30429389 1.4883519 -8 1 C-7.34 1.66 -6.68 2.32 -6 3 C-3.42459787 2.83492354 -3.42459787 2.83492354 -1 2 C-0.67 1.34 -0.34 0.68 0 0 Z " fill="#62C5BF" transform="translate(1724,368)"/>
<path d="M0 0 C0.99 0 1.98 0 3 0 C3 0.66 3 1.32 3 2 C3.66 2 4.32 2 5 2 C5.24234375 2.56589844 5.4846875 3.13179687 5.734375 3.71484375 C6.06953125 4.44832031 6.4046875 5.18179687 6.75 5.9375 C7.23726562 7.03384766 7.23726562 7.03384766 7.734375 8.15234375 C8.81691065 10.11685675 8.81691065 10.11685675 10.671875 10.609375 C13.64950618 11.10897755 16.49584594 11.11138252 19.515625 11.09765625 C21.39121094 11.09282227 21.39121094 11.09282227 23.3046875 11.08789062 C24.60664062 11.07951172 25.90859375 11.07113281 27.25 11.0625 C28.56742188 11.05798828 29.88484375 11.05347656 31.2421875 11.04882812 C34.49481104 11.03704326 37.74741124 11.0191079 41 11 C42.98 7.37 44.96 3.74 47 0 C48.32 0.33 49.64 0.66 51 1 C50.47599609 1.90492187 50.47599609 1.90492187 49.94140625 2.828125 C49.48636719 3.62734375 49.03132813 4.4265625 48.5625 5.25 C48.11003906 6.03890625 47.65757813 6.8278125 47.19140625 7.640625 C46.10688398 9.78833468 45.46851284 11.65205061 45 14 C45.49628906 14.3403125 45.99257812 14.680625 46.50390625 15.03125 C54.33749396 20.6202993 60.54935798 26.48574276 63 36 C63 39.3 63 42.6 63 46 C37.92 46 12.84 46 -13 46 C-13 33.81429487 -10.59830836 27.90437871 -2.26171875 19.140625 C0.35534531 16.66368009 2.86847716 14.76650006 6 13 C5.566875 12.31292969 5.13375 11.62585937 4.6875 10.91796875 C4.130625 10.01691406 3.57375 9.11585937 3 8.1875 C2.443125 7.29417969 1.88625 6.40085937 1.3125 5.48046875 C0 3 0 3 0 0 Z M6 26 C5.67 27.32 5.34 28.64 5 30 C6.98 30.99 6.98 30.99 9 32 C10.10836423 30.11683841 10.10836423 30.11683841 11 28 C10.67 27.34 10.34 26.68 10 26 C8.68 26 7.36 26 6 26 Z M41 26 C40.67 27.65 40.34 29.3 40 31 C40.99 31.33 41.98 31.66 43 32 C43.66 31.67 44.32 31.34 45 31 C44.67 29.35 44.34 27.7 44 26 C43.01 26 42.02 26 41 26 Z " fill="#9AC33E" transform="translate(1664,1608)"/>
<path d="M0 0 C4.7315551 0.60772267 8.72019902 1.9357083 13.125 3.75 C14.92324219 4.48476563 14.92324219 4.48476563 16.7578125 5.234375 C19.07653823 6.19691315 21.39325182 7.1642092 23.70996094 8.1315918 C31.12592639 11.22686116 38.55709046 14.28260949 46 17.3125 C47.74373901 18.02273315 47.74373901 18.02273315 49.52270508 18.74731445 C59.66514896 22.87344345 69.82637785 26.95143201 80 31 C79.34 31.99 78.68 32.98 78 34 C77.01 34 76.02 34 75 34 C73.03993242 34.79190634 71.10825014 35.65488188 69.1953125 36.5546875 C68.05449219 37.08707031 66.91367188 37.61945313 65.73828125 38.16796875 C64.54589844 38.73128906 63.35351562 39.29460937 62.125 39.875 C59.77393401 40.97762181 57.42238914 42.07922323 55.0703125 43.1796875 C54.02633301 43.67194824 52.98235352 44.16420898 51.90673828 44.67138672 C49.29702463 45.86423585 46.67415908 46.96124652 44 48 C48.51451958 53.40180724 53.27535841 58.45830288 58.25 63.4375 C58.96929688 64.16904297 59.68859375 64.90058594 60.4296875 65.65429688 C61.11804687 66.34458984 61.80640625 67.03488281 62.515625 67.74609375 C63.13727539 68.37185303 63.75892578 68.9976123 64.39941406 69.64233398 C65.9043948 71.21562157 65.9043948 71.21562157 68 71 C68 71.66 68 72.32 68 73 C60.10158492 72.46838163 52.41957574 71.51579271 44.64453125 70.0390625 C43.61744553 69.84782806 42.5903598 69.65659363 41.53215027 69.45956421 C39.38130835 69.05739645 37.23102613 68.65222445 35.08129883 68.24414062 C31.81171969 67.6248522 28.53986316 67.01887037 25.26757812 66.4140625 C23.16391307 66.0190241 21.06039218 65.62321702 18.95703125 65.2265625 C17.99118607 65.0483194 17.02534088 64.87007629 16.03022766 64.68643188 C10.16692132 63.56202361 4.60919154 62.04728276 -1 60 C1.5846175 58.63604825 4.0288721 57.60872595 6.85058594 56.85498047 C7.96128448 56.55489578 7.96128448 56.55489578 9.09442139 56.24874878 C9.88310608 56.04033356 10.67179077 55.83191833 11.484375 55.6171875 C12.70776581 55.28849167 12.70776581 55.28849167 13.95587158 54.95315552 C16.55285284 54.25639914 19.15138244 53.56562575 21.75 52.875 C23.51442844 52.40273783 25.27875265 51.93008604 27.04296875 51.45703125 C31.3607841 50.30016834 35.67999754 49.14866752 40 48 C39.06094349 46.89894864 38.12108818 45.79857852 37.1809082 44.69848633 C36.65761429 44.08564285 36.13432037 43.47279938 35.59516907 42.84138489 C33.18919557 40.06404715 30.69252429 37.37527296 28.1875 34.6875 C27.13241861 33.54854184 26.07773454 32.4092155 25.0234375 31.26953125 C24.51006836 30.71475098 23.99669922 30.1599707 23.46777344 29.58837891 C16.70355844 22.26835516 10.24263324 14.77046699 4 7 C3.25363281 6.10925781 2.50726562 5.21851563 1.73828125 4.30078125 C0 2 0 2 0 0 Z " fill="#23A1DA" transform="translate(1608,337)"/>
<path d="M0 0 C19.14 0 38.28 0 58 0 C56.86570892 4.5371643 55.69696014 5.59865413 52.375 8.75 C48.60410332 12.40288853 45.07491834 16.12367045 41.66796875 20.11328125 C39.36197703 22.72169811 36.88826379 25.13911787 34.3828125 27.5546875 C32.89145515 28.97109777 32.89145515 28.97109777 32 31 C31.34 31 30.68 31 30 31 C29.79761719 31.53109375 29.59523438 32.0621875 29.38671875 32.609375 C27.39547572 36.04216579 24.6553508 38.50899216 21.8125 41.25 C17.54373173 45.43463158 13.43922744 49.65578276 9.5625 54.2109375 C6.87374035 57.2895673 4.03322212 60.2581043 1 63 C0.67 63 0.34 63 0 63 C0 42.21 0 21.42 0 0 Z " fill="#3687C7" transform="translate(348,340)"/>
<path d="M0 0 C2.4175231 2.4175231 3.09745277 4.47693405 4.3125 7.671875 C4.96605469 9.38117188 4.96605469 9.38117188 5.6328125 11.125 C6.08398438 12.32125 6.53515625 13.5175 7 14.75 C7.67675781 16.52117187 7.67675781 16.52117187 8.3671875 18.328125 C10.34690167 23.52926755 12.23935762 28.71807285 14 34 C14.33 27.73 14.66 21.46 15 15 C16.32 14.67 17.64 14.34 19 14 C21.33984375 15.40625 21.33984375 15.40625 23.9375 17.5 C29.97051477 22.13074647 36.23913661 25.56045106 43 29 C42.33504438 33.99766643 41.01097515 36.92061431 38 41 C33.59885603 40.49701212 31.28804981 38.91227269 28 36 C29.65 39.3 31.3 42.6 33 46 C24.32352941 54.92436975 24.32352941 54.92436975 20.8125 55.125 C18.02592369 53.39540091 17.78317473 51.06743434 17 48 C16.67 50.97 16.34 53.94 16 57 C12.50702584 55.25351292 11.19740708 54.43293687 8.8125 51.625 C8.30332031 51.03976562 7.79414062 50.45453125 7.26953125 49.8515625 C4.94707544 46.46435003 4.87838513 43.26981134 4.9375 39.25 C4.94652344 38.45078125 4.95554687 37.6515625 4.96484375 36.828125 C4.97644531 36.22484375 4.98804688 35.6215625 5 35 C4.34 35 3.68 35 3 35 C2.87625 35.7425 2.7525 36.485 2.625 37.25 C2.04513299 39.80141485 1.26291261 41.7267573 0 44 C-2.36881532 40.44677702 -2.24570308 38.92519424 -2.23046875 34.71484375 C-2.22853516 33.46123047 -2.22660156 32.20761719 -2.22460938 30.91601562 C-2.21236328 29.60310547 -2.20011719 28.29019531 -2.1875 26.9375 C-2.18685547 25.65166016 -2.18621094 24.36582031 -2.18554688 23.04101562 C-2.09897846 4.19795692 -2.09897846 4.19795692 0 0 Z " fill="#35BEB3" transform="translate(1675,410)"/>
<path d="M0 0 C3.70190249 1.54542862 6.01653434 3.79953051 8.80859375 6.6484375 C9.72060547 7.57140625 10.63261719 8.494375 11.57226562 9.4453125 C12.52770996 10.42151671 13.48278509 11.39808241 14.4375 12.375 C16.30785308 14.28200168 18.18243609 16.18462317 20.05859375 18.0859375 C20.88673584 18.9320459 21.71487793 19.7781543 22.56811523 20.64990234 C24.9369591 22.93907923 27.42916053 24.94494615 30 27 C31.34736973 28.65533995 32.68334336 30.32012773 34 32 C34.99 32.495 34.99 32.495 36 33 C36 33.99 36 34.98 36 36 C30.14692822 36.19844802 24.29583206 36.343246 18.44018555 36.43945312 C16.4505806 36.479572 14.46120988 36.53408374 12.47241211 36.60351562 C9.60471803 36.7010904 6.74015044 36.74603859 3.87109375 36.78125 C2.98852402 36.82254028 2.10595428 36.86383057 1.19664001 36.90637207 C-2.63369774 36.90912627 -5.0337834 36.81427365 -8.03048706 34.28881836 C-9.87084961 32.16992187 -9.87084961 32.16992187 -11.43125916 30.06433105 C-13.87082384 26.85406905 -16.88612157 24.54194158 -20 22 C-18.51346494 18.53370165 -16.54277649 16.30977964 -13.8671875 13.671875 C-12.65869141 12.47304687 -12.65869141 12.47304687 -11.42578125 11.25 C-10.58402344 10.425 -9.74226563 9.6 -8.875 8.75 C-8.02550781 7.90953125 -7.17601562 7.0690625 -6.30078125 6.203125 C-4.20495077 4.13084317 -2.10459287 2.06337607 0 0 Z " fill="#0C5A9E" transform="translate(1043,166)"/>
<path d="M0 0 C2.43119623 1.87015094 3.64069173 3.28138345 5 6 C5.28570153 11.63446819 5.31382411 17.27010589 5.35009766 22.91113281 C5.3666375 24.79667521 5.39390159 26.68215541 5.43212891 28.56738281 C5.48704051 31.29004343 5.50879426 34.01123437 5.5234375 36.734375 C5.54610687 37.57208435 5.56877625 38.4097937 5.59213257 39.27288818 C5.57698772 43.49171843 5.29036794 46.18365076 2.59619141 49.53369141 C0 52 0 52 -2.0625 52.7265625 C-3.0215625 52.67628906 -3.0215625 52.67628906 -4 52.625 C-4.639375 52.61726563 -5.27875 52.60953125 -5.9375 52.6015625 C-9.17473031 51.65737033 -10.67608399 50.48476994 -13 48 C-13.76326989 44.71640369 -13.70064752 41.4839784 -13.6640625 38.125 C-13.66884613 37.16352051 -13.67362976 36.20204102 -13.67855835 35.21142578 C-13.68195754 33.1806474 -13.67275379 31.14981432 -13.65185547 29.11914062 C-13.62509021 26.01047776 -13.65160265 22.90542555 -13.68359375 19.796875 C-13.68028966 17.8229087 -13.67388343 15.84894464 -13.6640625 13.875 C-13.67418365 12.94574707 -13.68430481 12.01649414 -13.69473267 11.05908203 C-13.5777625 4.61936983 -13.5777625 4.61936983 -10.58959961 1.41601562 C-6.57879333 -0.77712819 -4.53825478 -0.57628632 0 0 Z " fill="#9AC33E" transform="translate(1743,1657)"/>
<path d="M0 0 C3.9375 0.5625 3.9375 0.5625 6.375 2.4375 C9.43913445 6.60472285 9.11554652 10.32242691 9.140625 15.33203125 C9.14632507 16.20518478 9.15202515 17.07833832 9.15789795 17.97795105 C9.16735345 19.82814317 9.17388411 21.67835218 9.17773438 23.52856445 C9.18742565 26.35332844 9.21843755 29.17736044 9.25 32.00195312 C9.25653152 33.79947485 9.26178141 35.59700177 9.265625 37.39453125 C9.2779718 38.23740189 9.2903186 39.08027252 9.30303955 39.94868469 C9.28530892 44.63965653 9.0039195 47.76027047 5.9375 51.5625 C2.77953893 53.14148053 -0.66920636 53.38178171 -4.0625 52.5625 C-6.76628626 50.54146749 -8.75025091 48.91039622 -9.53529358 45.52157593 C-9.72430785 43.02261351 -9.75547661 40.56850481 -9.7265625 38.0625 C-9.73134613 37.14919922 -9.73612976 36.23589844 -9.74105835 35.29492188 C-9.74445317 33.36847201 -9.73527994 31.44196421 -9.71435547 29.515625 C-9.68758281 26.57160652 -9.71411622 23.6314003 -9.74609375 20.6875 C-9.74278958 18.81249161 -9.73638318 16.93748558 -9.7265625 15.0625 C-9.73668365 14.18529297 -9.74680481 13.30808594 -9.75723267 12.40429688 C-9.67190016 7.94105224 -9.50422205 6.12224724 -6.65209961 2.50805664 C-4.11258998 0.60013242 -3.10693582 -0.10500578 0 0 Z " fill="#9AC33E" transform="translate(1640.0625,1656.4375)"/>
<path d="M0 0 C3.73811877 0.56799377 5.40618706 2.06306051 8.00390625 4.74609375 C8.74447266 5.50083984 9.48503906 6.25558594 10.24804688 7.03320312 C11.01181641 7.82662109 11.77558594 8.62003906 12.5625 9.4375 C14.0824425 11.00083297 15.60449028 12.56212258 17.12890625 14.12109375 C18.13546265 15.16414673 18.13546265 15.16414673 19.16235352 16.22827148 C21.07861907 18.18109689 21.07861907 18.18109689 24 20 C23.57332031 20.35449219 23.14664062 20.70898438 22.70703125 21.07421875 C19.21931268 24.04417291 15.88244262 27.08456839 12.71484375 30.39453125 C11.85765747 31.28362183 11.85765747 31.28362183 10.9831543 32.19067383 C9.83445674 33.38985647 8.69637784 34.59930825 7.56958008 35.8190918 C5.953125 37.5 5.953125 37.5 3 40 C-0.16467219 39.6944661 -0.84097912 39.18979911 -2.9375 36.6875 C-3.618125 35.800625 -4.29875 34.91375 -5 34 C-5.825 33.34 -6.65 32.68 -7.5 32 C-10.12899543 29.89680365 -11.90319635 27.62100457 -14 25 C-15.63356951 23.62631655 -17.2925002 22.28062485 -19 21 C-18.505 19.515 -18.505 19.515 -18 18 C-17.34 18 -16.68 18 -16 18 C-15.67 17.01 -15.34 16.02 -15 15 C-14.34 15 -13.68 15 -13 15 C-12.67 14.01 -12.34 13.02 -12 12 C-11.34 12 -10.68 12 -10 12 C-9.67 11.01 -9.34 10.02 -9 9 C-8.34 9 -7.68 9 -7 9 C-6.67 8.01 -6.34 7.02 -6 6 C-5.34 6 -4.68 6 -4 6 C-3.67 5.01 -3.34 4.02 -3 3 C-2.34 3 -1.68 3 -1 3 C-0.67 2.01 -0.34 1.02 0 0 Z " fill="#45B6E8" transform="translate(1021,146)"/>
<path d="M0 0 C6.27 0 12.54 0 19 0 C19.0919778 4.20031967 19.1715554 8.39713073 19.21972656 12.59765625 C19.23980982 14.02551121 19.26708252 15.45328425 19.30175781 16.88085938 C19.35042669 18.93640368 19.37299967 20.99085855 19.390625 23.046875 C19.41157227 24.28276367 19.43251953 25.51865234 19.45410156 26.79199219 C18.91713917 30.58537165 17.98212544 31.68888744 15 34 C11.89951072 35.55024464 9.42105782 35.28992015 6 35 C3.24670979 33.20437595 1.47372539 31.94745078 0 29 C-0.08559118 26.82175039 -0.10713412 24.64084745 -0.09765625 22.4609375 C-0.09443359 21.15898438 -0.09121094 19.85703125 -0.08789062 18.515625 C-0.07953466 17.13541601 -0.07106971 15.75520768 -0.0625 14.375 C-0.05748501 12.98698074 -0.0529221 11.59895978 -0.04882812 10.2109375 C-0.03700985 6.80727327 -0.0190739 3.4036313 0 0 Z " fill="#99C33D" transform="translate(1664,1723)"/>
<path d="M0 0 C4.02207349 2.16000243 6.32619171 3.76270154 8 8 C8.7312677 12.5915174 9.07814881 17.10497156 6.7265625 21.23828125 C4.0291226 24.41599704 1.91161666 26.74955603 -2.35546875 27.30859375 C-7.54842893 27.54496297 -11.05254385 27.60479101 -15.125 24.125 C-18.55850175 20.72435473 -19.17168975 18.5101062 -19.25 13.6875 C-19.13318958 6.23110176 -19.13318958 6.23110176 -16 3 C-10.79900574 -0.71841199 -6.16188201 -1.9987923 0 0 Z " fill="#6DCDEF" transform="translate(140,1026)"/>
<path d="M0 0 C5.57706316 0.34215111 9.56065402 2.72589972 14.25 5.5 C15.6718143 6.32302154 17.09368657 7.14594293 18.515625 7.96875 C19.13727539 8.33419922 19.75892578 8.69964844 20.39941406 9.07617188 C27.32469752 13.07331535 36.74755123 10.55951125 44.37304688 9.62304688 C45.59024414 9.48286133 45.59024414 9.48286133 46.83203125 9.33984375 C47.56139893 9.25081787 48.2907666 9.16179199 49.04223633 9.07006836 C51 9 51 9 54 10 C49.32903366 12.06324894 44.49504208 13.24692926 39.5625 14.5 C37.89664351 14.92516059 36.23126605 15.35220313 34.56640625 15.78125 C33.77395508 15.98379395 32.98150391 16.18633789 32.16503906 16.39501953 C29.81402409 17.01339413 29.81402409 17.01339413 26.89453125 18.2109375 C23.13578815 19.23558811 19.89406055 18.76048114 16.125 18.125 C15.43664063 18.02058594 14.74828125 17.91617187 14.0390625 17.80859375 C12.35739994 17.55167308 10.6783739 17.27759365 9 17 C8.34 18.32 7.68 19.64 7 21 C2 20 2 20 -0.4375 19.3125 C-3.72586018 18.91148047 -5.9535769 19.79560017 -9 21 C-11.64 18.36 -14.28 15.72 -17 13 C-13.0357963 8.48900959 -8.42835006 5.58962704 -3.328125 2.453125 C-1.12348032 1.19862949 -1.12348032 1.19862949 0 0 Z " fill="#23A1D9" transform="translate(1715,351)"/>
<path d="M0 0 C5.94 0 11.88 0 18 0 C18.09209131 4.03922718 18.17164044 8.07576353 18.21972656 12.11547852 C18.2397799 13.48800023 18.26703028 14.86043717 18.30175781 16.23266602 C18.35054552 18.21072044 18.37088876 20.18941119 18.390625 22.16796875 C18.41157227 23.35672607 18.43251953 24.5454834 18.45410156 25.77026367 C17.910615 29.63573881 16.70847978 31.24650481 14 34 C10.89951072 35.55024464 8.42105782 35.28992015 5 35 C2.30004883 33.42871094 2.30004883 33.42871094 0 31 C-0.56762695 27.70019531 -0.56762695 27.70019531 -0.48828125 23.828125 C-0.48120651 23.1457074 -0.47413177 22.46328979 -0.46684265 21.76019287 C-0.43894021 19.58899439 -0.37622253 17.42041332 -0.3125 15.25 C-0.28741117 13.77477694 -0.264599 12.29951329 -0.24414062 10.82421875 C-0.193383 7.21433637 -0.09556101 3.61008249 0 0 Z " fill="#99C33D" transform="translate(1696,1723)"/>
<path d="M0 0 C4.95 0.33 9.9 0.66 15 1 C13.0009406 4.99811879 11.11727503 6.88272497 8 10 C7.33568957 11.23424159 6.67163699 12.46862199 6.0078125 13.703125 C4.69702148 15.56762695 4.69702148 15.56762695 3 17 C-0.70556391 17.59336339 -4.13013384 17.0285581 -7.8125 16.4375 C-8.79154297 16.31052734 -9.77058594 16.18355469 -10.77929688 16.05273438 C-13.19278566 15.73486024 -15.59617074 15.38322836 -18 15 C-17.66164128 6.70640348 -17.66164128 6.70640348 -15.15234375 4.02734375 C-14.05599609 3.48787109 -14.05599609 3.48787109 -12.9375 2.9375 C-12.20402344 2.55464844 -11.47054688 2.17179687 -10.71484375 1.77734375 C-10.14894531 1.52082031 -9.58304688 1.26429688 -9 1 C-8.01 1.66 -7.02 2.32 -6 3 C-3.38084878 2.84298574 -3.38084878 2.84298574 -1 2 C-0.67 1.34 -0.34 0.68 0 0 Z " fill="#33BDB2" transform="translate(1724,368)"/>
<path d="M0 0 C38.61 0 77.22 0 117 0 C116.34 8.25 115.68 16.5 115 25 C114.67 25 114.34 25 114 25 C113.97237579 23.04175069 113.95332986 21.08338017 113.9375 19.125 C113.92589844 18.03445313 113.91429687 16.94390625 113.90234375 15.8203125 C114.020436 11.20054369 114.54016566 6.5983434 115 2 C77.38 2 39.76 2 1 2 C1 4.31 1 6.62 1 9 C0.67 9 0.34 9 0 9 C0 6.03 0 3.06 0 0 Z " fill="#E8DB90" transform="translate(989,1884)"/>
<path d="M0 0 C-1 2 -1 2 -2.80664062 2.63842773 C-3.58201172 2.81833252 -4.35738281 2.9982373 -5.15625 3.18359375 C-6.01476563 3.38919922 -6.87328125 3.59480469 -7.7578125 3.80664062 C-8.66273437 4.01482422 -9.56765625 4.22300781 -10.5 4.4375 C-12.26126753 4.84924175 -14.02169592 5.26459015 -15.78125 5.68359375 C-16.65531494 5.89121338 -17.52937988 6.09883301 -18.42993164 6.31274414 C-20.90998144 6.97592835 -23.25089656 7.80842693 -25.65234375 8.7109375 C-30.19115306 10.27665079 -33.33739694 9.99630142 -38.0625 9.1875 C-38.73732422 9.07857422 -39.41214844 8.96964844 -40.10742188 8.85742188 C-41.74153784 8.59086395 -43.37137201 8.29825993 -45 8 C-45.66 9.32 -46.32 10.64 -47 12 C-51.75 11.25 -51.75 11.25 -54 9 C-53.44444444 4.44444444 -53.44444444 4.44444444 -52 3 C-50.00041636 2.95919217 -47.99954746 2.95745644 -46 3 C-45.67 3.99 -45.34 4.98 -45 6 C-44.1028125 5.85377197 -43.205625 5.70754395 -42.28125 5.55688477 C-38.91929592 5.00965554 -35.55713274 4.4637467 -32.19482422 3.91870117 C-30.74584644 3.68354449 -29.29695134 3.4478777 -27.84814453 3.21166992 C-25.75315081 2.87020471 -23.65785627 2.53063882 -21.5625 2.19140625 C-20.30566406 1.98717041 -19.04882812 1.78293457 -17.75390625 1.57250977 C-11.82045003 0.66759595 -6.02058323 -0.15051458 0 0 Z " fill="#125D80" transform="translate(1769,360)"/>
<path d="M0 0 C4.46572985 1.37407072 6.44256859 3.31390685 9.25 7 C9.93578125 7.886875 10.6215625 8.77375 11.328125 9.6875 C13.74107019 13.02503166 14.1221648 14.72064251 14.09765625 18.7890625 C14.09443359 19.73007812 14.09121094 20.67109375 14.08789062 21.640625 C14.07951172 22.62546875 14.07113281 23.6103125 14.0625 24.625 C14.05798828 25.61757813 14.05347656 26.61015625 14.04882812 27.6328125 C14.03702145 30.0886016 14.020554 32.54427104 14 35 C10.59817851 31.91846077 9.52671312 28.39147015 8.125 24.125 C7.60582203 22.59448955 7.08496764 21.06454683 6.5625 19.53515625 C6.30339844 18.77348145 6.04429688 18.01180664 5.77734375 17.22705078 C4.27262222 12.91609922 2.57108816 8.68333158 0.8828125 4.44140625 C0 2 0 2 0 0 Z " fill="#1F8BC9" transform="translate(1676,410)"/>
<path d="M0 0 C1.38671875 1.48046875 1.38671875 1.48046875 2.6875 3.1875 C4.13637428 4.89028196 4.13637428 4.89028196 6 6 C9.21547993 5.93158553 11.99571104 5.10824882 15 4 C12.702779 5.74271938 10.40133271 7.39911152 8 9 C7.21011855 10.95385067 7.21011855 10.95385067 6.8125 13.125 C6.544375 14.40375 6.27625 15.6825 6 17 C-0.4266106 13.57247434 -6.16594374 9.34653016 -12 5 C-11 2 -11 2 -7.6875 0.25 C-3.18286321 -1.27699552 -3.18286321 -1.27699552 0 0 Z " fill="#1E88C7" transform="translate(1700,365)"/>
<path d="M0 0 C1.4540625 0.0309375 1.4540625 0.0309375 2.9375 0.0625 C3.2675 1.0525 3.5975 2.0425 3.9375 3.0625 C4.5975 3.3925 5.2575 3.7225 5.9375 4.0625 C4.6175 5.7125 3.2975 7.3625 1.9375 9.0625 C-2.8125 8.3125 -2.8125 8.3125 -5.0625 6.0625 C-4.33395709 0.0884481 -4.33395709 0.0884481 0 0 Z " fill="#115F81" transform="translate(1720.0625,362.9375)"/>
<path d="M0 0 C1.32 0.33 2.64 0.66 4 1 C3.65066406 1.59167969 3.30132813 2.18335938 2.94140625 2.79296875 C2.48636719 3.58316406 2.03132813 4.37335938 1.5625 5.1875 C1.11003906 5.96480469 0.65757813 6.74210937 0.19140625 7.54296875 C-1.02391499 10.04931977 -1.57626575 12.25790365 -2 15 C-4.64 14.34 -7.28 13.68 -10 13 C-9.40703125 12.78601562 -8.8140625 12.57203125 -8.203125 12.3515625 C-5.22961292 10.52738665 -4.32763193 8.45855331 -2.75 5.375 C-2.22921875 4.37210938 -1.7084375 3.36921875 -1.171875 2.3359375 C-0.78515625 1.56507812 -0.3984375 0.79421875 0 0 Z " fill="#A8CC57" transform="translate(1711,1608)"/>
<path d="M0 0 C2 0.33333333 4 0.66666667 6 1 C6 1.66 6 2.32 6 3 C0.06 3.33 -5.88 3.66 -12 4 C-12.33 3.34 -12.66 2.68 -13 2 C-8.06172511 -0.46913745 -5.50743068 -1.40615251 0 0 Z " fill="#F0F1F1" transform="translate(1050,2017)"/>
<path d="M0 0 C0.99 0 1.98 0 3 0 C3 0.66 3 1.32 3 2 C3.66 2 4.32 2 5 2 C5.26554687 2.54269531 5.53109375 3.08539062 5.8046875 3.64453125 C6.15789062 4.35996094 6.51109375 5.07539062 6.875 5.8125 C7.22304687 6.52019531 7.57109375 7.22789063 7.9296875 7.95703125 C9.0656486 10.21246418 9.0656486 10.21246418 11 13 C8.70703125 13.30078125 8.70703125 13.30078125 6 13 C4.19921875 10.91796875 4.19921875 10.91796875 2.6875 8.1875 C2.17574219 7.29417969 1.66398437 6.40085937 1.13671875 5.48046875 C0 3 0 3 0 0 Z " fill="#A9CC58" transform="translate(1664,1608)"/>
<path d="M0 0 C-0.33 0.66 -0.66 1.32 -1 2 C-3.5315866 2.63801836 -5.99839502 3.16687368 -8.5625 3.625 C-9.27341797 3.7590625 -9.98433594 3.893125 -10.71679688 4.03125 C-12.47642553 4.36191847 -14.23804548 4.68195767 -16 5 C-16 3.68 -16 2.36 -16 1 C-10.65097076 0.40801257 -5.39115154 -0.14187241 0 0 Z " fill="#286B8C" transform="translate(1769,360)"/>
<path d="M0 0 C4.62 0 9.24 0 14 0 C14.33 0.66 14.66 1.32 15 2 C13.27185839 2.19672365 11.54240803 2.38196799 9.8125 2.5625 C8.84957031 2.66691406 7.88664062 2.77132813 6.89453125 2.87890625 C4.05766623 2.99758751 1.74576329 2.67765639 -1 2 C-0.67 1.34 -0.34 0.68 0 0 Z " fill="#F2F3F4" transform="translate(1060,2018)"/>
<path d="M0 0 C0.99 0 1.98 0 3 0 C3 0.66 3 1.32 3 2 C3.66 2 4.32 2 5 2 C5 3.65 5 5.3 5 7 C2 6 2 6 0 3 C0 2.01 0 1.02 0 0 Z " fill="#A3C94F" transform="translate(1664,1608)"/>
<path d="M0 0 C2.97 0.33 5.94 0.66 9 1 C9 1.66 9 2.32 9 3 C6.03 3 3.06 3 0 3 C0 2.01 0 1.02 0 0 Z " fill="#FBFBFB" transform="translate(1047,2017)"/>
<path d="M0 0 C-0.33 0.66 -0.66 1.32 -1 2 C-3.06640625 2.4140625 -3.06640625 2.4140625 -5.5625 2.625 C-6.38878906 2.69976562 -7.21507812 2.77453125 -8.06640625 2.8515625 C-9.02353516 2.92503906 -9.02353516 2.92503906 -10 3 C-8.0130571 -0.97388579 -3.91761109 -0.08705802 0 0 Z " fill="#5C8FA5" transform="translate(1769,360)"/>
<path d="M0 0 C1.98 0.99 1.98 0.99 4 2 C2.68 2 1.36 2 0 2 C0 1.34 0 0.68 0 0 Z " fill="#F1F2F3" transform="translate(1032,2018)"/>
</svg>
